<?xml version="1.0" encoding="UTF-8" standalone="no"?>
<!-- Created with Inkscape (http://www.inkscape.org/) -->

<svg
   xmlns:osb="http://www.openswatchbook.org/uri/2009/osb"
   xmlns:dc="http://purl.org/dc/elements/1.1/"
   xmlns:cc="http://creativecommons.org/ns#"
   xmlns:rdf="http://www.w3.org/1999/02/22-rdf-syntax-ns#"
   xmlns:svg="http://www.w3.org/2000/svg"
   xmlns="http://www.w3.org/2000/svg"
   xmlns:xlink="http://www.w3.org/1999/xlink"
   xmlns:sodipodi="http://sodipodi.sourceforge.net/DTD/sodipodi-0.dtd"
   xmlns:inkscape="http://www.inkscape.org/namespaces/inkscape"
   width="1948.8188"
   height="1062.9921"
   id="svg2"
   version="1.1"
   inkscape:version="0.48.3.1 r9886"
   sodipodi:docname="colorful-background-idea-layers.svg"
   inkscape:export-filename="/home/likewise-open/OFFICEISAC/thomas.zanthoff/Arbeitsfläche/Zeichnung.png"
   inkscape:export-xdpi="15.14"
   inkscape:export-ydpi="15.14">
  <sodipodi:namedview
     id="base"
     pagecolor="#ffffff"
     bordercolor="#666666"
     borderopacity="1.0"
     inkscape:pageopacity="0.0"
     inkscape:pageshadow="2"
     inkscape:zoom="0.25"
     inkscape:cx="877.30688"
     inkscape:cy="816.64571"
     inkscape:document-units="px"
     inkscape:current-layer="layer1"
     showgrid="false"
     inkscape:window-width="1855"
     inkscape:window-height="1056"
     inkscape:window-x="1985"
     inkscape:window-y="24"
     inkscape:window-maximized="1"
     inkscape:snap-grids="true"
     inkscape:snap-page="false"
     units="m" />
  <defs
     id="defs4">
    <inkscape:perspective
       sodipodi:type="inkscape:persp3d"
       inkscape:vp_x="-411.31752 : 5.0370204e-14 : 0"
       inkscape:vp_y="0 : 1000 : 0"
       inkscape:vp_z="-2085.9655 : 2299.6741 : 1"
       inkscape:persp3d-origin="1467.9296 : 561.04964 : 1"
       id="perspective7021" />
    <linearGradient
       id="linearGradient6999">
      <stop
         style="stop-color:#fc2e13;stop-opacity:1;"
         offset="0"
         id="stop7001" />
      <stop
         style="stop-color:#0e080c;stop-opacity:0;"
         offset="1"
         id="stop7003" />
    </linearGradient>
    <linearGradient
       id="linearGradient6989">
      <stop
         style="stop-color:#5ff8ca;stop-opacity:0.94117647;"
         offset="0"
         id="stop6991" />
      <stop
         style="stop-color:#0e080c;stop-opacity:0;"
         offset="1"
         id="stop6993" />
    </linearGradient>
    <linearGradient
       id="linearGradient6977">
      <stop
         id="stop6979"
         offset="0"
         style="stop-color:#c94ba6;stop-opacity:1;" />
      <stop
         id="stop6981"
         offset="1"
         style="stop-color:#0e080c;stop-opacity:0;" />
    </linearGradient>
    <linearGradient
       id="linearGradient6932">
      <stop
         style="stop-color:#fcfb31;stop-opacity:1;"
         offset="0"
         id="stop6934" />
      <stop
         style="stop-color:#0e080c;stop-opacity:0;"
         offset="1"
         id="stop6936" />
    </linearGradient>
    <linearGradient
       id="linearGradient5489"
       osb:paint="gradient">
      <stop
         style="stop-color:#0e080c;stop-opacity:1"
         offset="0"
         id="stop5491" />
      <stop
         style="stop-color:#00ffff;stop-opacity:0;"
         offset="1"
         id="stop5493" />
    </linearGradient>
    <linearGradient
       id="linearGradient4852">
      <stop
         style="stop-color:#2afe20;stop-opacity:0.49803922;"
         offset="0"
         id="stop4860" />
      <stop
         id="stop4864"
         offset="0.5"
         style="stop-color:#153f8f;stop-opacity:0.24705882;" />
      <stop
         id="stop4856"
         offset="1"
         style="stop-color:#0000ff;stop-opacity:0;" />
    </linearGradient>
    <linearGradient
       id="linearGradient4844"
       inkscape:collect="always">
      <stop
         id="stop4846"
         offset="0"
         style="stop-color:#00ffff;stop-opacity:1;" />
      <stop
         id="stop4848"
         offset="1"
         style="stop-color:#00ffff;stop-opacity:0;" />
    </linearGradient>
    <inkscape:perspective
       sodipodi:type="inkscape:persp3d"
       inkscape:vp_x="-411.31752 : 5.0370204e-14 : 0"
       inkscape:vp_y="0 : 1000 : 0"
       inkscape:vp_z="-2094.1311 : 2300.2211 : 1"
       inkscape:persp3d-origin="1468.0472 : 142.78739 : 1"
       id="perspective3070" />
    <inkscape:perspective
       sodipodi:type="inkscape:persp3d"
       inkscape:vp_x="-411.31752 : 5.0370204e-14 : 0"
       inkscape:vp_y="0 : 1000 : 0"
       inkscape:vp_z="-2082.2132 : 2298.1761 : 1"
       inkscape:persp3d-origin="1467.8432 : 247.81856 : 1"
       id="perspective3070-9" />
    <inkscape:perspective
       sodipodi:type="inkscape:persp3d"
       inkscape:vp_x="-411.31752 : 5.0370204e-14 : 0"
       inkscape:vp_y="0 : 1000 : 0"
       inkscape:vp_z="-2090.3061 : 2301.8532 : 1"
       inkscape:persp3d-origin="1467.8316 : 352.51097 : 1"
       id="perspective3070-9-0" />
    <inkscape:perspective
       sodipodi:type="inkscape:persp3d"
       inkscape:vp_x="-411.31752 : 5.0370204e-14 : 0"
       inkscape:vp_y="0 : 1000 : 0"
       inkscape:vp_z="-2098.3683 : 2301.5375 : 1"
       inkscape:persp3d-origin="1467.8505 : 457.25117 : 1"
       id="perspective3070-9-0-0" />
    <linearGradient
       gradientUnits="userSpaceOnUse"
       y2="-357.97311"
       x2="-1023.992"
       y1="-357.97311"
       x1="-2256.9919"
       id="linearGradient4850"
       xlink:href="#linearGradient4844"
       inkscape:collect="always" />
    <linearGradient
       gradientUnits="userSpaceOnUse"
       y2="19.862181"
       x2="-1024.5"
       y1="-737.13782"
       x1="-2257.5"
       id="linearGradient4858"
       xlink:href="#linearGradient4852"
       inkscape:collect="always" />
    <linearGradient
       inkscape:collect="always"
       xlink:href="#linearGradient4852"
       id="linearGradient5278"
       gradientUnits="userSpaceOnUse"
       x1="-2257.5"
       y1="-737.13782"
       x2="-1024.5"
       y2="19.862181" />
    <linearGradient
       inkscape:collect="always"
       xlink:href="#linearGradient6932"
       id="linearGradient6940"
       x1="-1968.5854"
       y1="-613.58142"
       x2="-1193.5964"
       y2="-93.150795"
       gradientUnits="userSpaceOnUse" />
    <linearGradient
       inkscape:collect="always"
       xlink:href="#linearGradient6932-4"
       id="linearGradient6940-4"
       x1="-2257.085"
       y1="-740.8606"
       x2="-1006.9202"
       y2="36.956852"
       gradientUnits="userSpaceOnUse" />
    <linearGradient
       id="linearGradient6932-4">
      <stop
         style="stop-color:#ef080c;stop-opacity:1;"
         offset="0"
         id="stop6934-1" />
      <stop
         style="stop-color:#0e080c;stop-opacity:0;"
         offset="1"
         id="stop6936-4" />
    </linearGradient>
    <linearGradient
       gradientTransform="translate(-4.2425571,-5.6568479)"
       y2="-53.552814"
       x2="-2095.8645"
       y1="-941.67889"
       x1="-673.16571"
       gradientUnits="userSpaceOnUse"
       id="linearGradient6958"
       xlink:href="#linearGradient6977"
       inkscape:collect="always" />
    <linearGradient
       inkscape:collect="always"
       xlink:href="#linearGradient6989"
       id="linearGradient6987"
       gradientUnits="userSpaceOnUse"
       gradientTransform="translate(-4.2425571,-5.6568479)"
       x1="-1176.6257"
       y1="-62.038067"
       x2="-2027.9823"
       y2="-624.89508" />
    <linearGradient
       inkscape:collect="always"
       xlink:href="#linearGradient6999"
       id="linearGradient7005"
       gradientUnits="userSpaceOnUse"
       gradientTransform="translate(-4.2425571,-5.6568479)"
       x1="-2423.9622"
       y1="356.56915"
       x2="-1202.0815"
       y2="-627.72357" />
    <linearGradient
       inkscape:collect="always"
       xlink:href="#linearGradient6932"
       id="linearGradient7939"
       gradientUnits="userSpaceOnUse"
       x1="-933.3811"
       y1="209.49088"
       x2="610.94006"
       y2="531.93158" />
    <linearGradient
       y2="138.78024"
       x2="-882.4693"
       y1="424.45139"
       x1="560.0285"
       gradientTransform="translate(-4.2425571,-5.6568479)"
       gradientUnits="userSpaceOnUse"
       id="linearGradient8172"
       xlink:href="#linearGradient6989"
       inkscape:collect="always" />
    <linearGradient
       inkscape:collect="always"
       xlink:href="#linearGradient6977"
       id="linearGradient8410"
       gradientUnits="userSpaceOnUse"
       gradientTransform="translate(-4.2425571,-5.6568479)"
       x1="132.93602"
       y1="-53.55278"
       x2="-444.06308"
       y2="291.51529" />
    <linearGradient
       y2="517.78943"
       x2="-220.61737"
       y1="135.95183"
       x1="-104.65187"
       gradientTransform="translate(-4.2425571,-5.6568479)"
       gradientUnits="userSpaceOnUse"
       id="linearGradient8652"
       xlink:href="#linearGradient6989"
       inkscape:collect="always" />
    <linearGradient
       y2="82.211685"
       x2="-800.44489"
       y1="240.60364"
       x1="280.01422"
       gradientTransform="translate(-4.2425571,-5.6568479)"
       gradientUnits="userSpaceOnUse"
       id="linearGradient8654"
       xlink:href="#linearGradient6977"
       inkscape:collect="always" />
    <linearGradient
       y2="-146.89096"
       x2="178.19089"
       y1="328.28485"
       x1="-596.79828"
       gradientTransform="translate(-4.2425571,-5.6568479)"
       gradientUnits="userSpaceOnUse"
       id="linearGradient8658"
       xlink:href="#linearGradient6999"
       inkscape:collect="always" />
    <linearGradient
       inkscape:collect="always"
       xlink:href="#linearGradient6999"
       id="linearGradient8910"
       gradientUnits="userSpaceOnUse"
       gradientTransform="translate(-4.2425571,-5.6568479)"
       x1="-107.48039"
       y1="256.15994"
       x2="-22.627438"
       y2="-43.65337" />
  </defs>
  <metadata
     id="metadata7">
    <rdf:RDF>
      <cc:Work
         rdf:about="">
        <dc:format>image/svg+xml</dc:format>
        <dc:type
           rdf:resource="http://purl.org/dc/dcmitype/StillImage" />
        <dc:title />
      </cc:Work>
    </rdf:RDF>
  </metadata>
  <g
     id="layer1"
     inkscape:groupmode="layer"
     inkscape:label="Ebene 1"
     style="display:none"
     transform="translate(0,10.64217)"
     sodipodi:insensitive="true">
    <g
       sodipodi:type="inkscape:box3d"
       style="fill:none;stroke:none"
       id="g3072"
       inkscape:perspectiveID="#perspective3070"
       inkscape:corner0="2.1419598 : -0.067838744 : 0 : 1"
       inkscape:corner7="-0.88577497 : 0.036872771 : 0.25 : 1">
      <path
         sodipodi:type="inkscape:box3dside"
         id="path3080"
         style="fill:#d7d7ff;fill-rule:evenodd;stroke:none"
         inkscape:box3dsidetype="14"
         d="m 1832.382,977.40125 0,-104.71152 -785.3026,-424.11218 0,83.76921 z" />
      <path
         sodipodi:type="inkscape:box3dside"
         id="path3076"
         style="fill:#4d4d9f;fill-rule:evenodd;stroke:none"
         inkscape:box3dsidetype="5"
         d="m 587.02161,977.40125 1245.36039,0 -785.3026,-445.05449 -996.288334,0 z" />
      <path
         sodipodi:type="inkscape:box3dside"
         id="path3084"
         style="fill:#e9e9ff;fill-rule:evenodd;stroke:none"
         inkscape:box3dsidetype="11"
         d="m 50.791066,532.34676 996.288334,0 0,-83.76921 -996.288334,0 z" />
      <path
         sodipodi:type="inkscape:box3dside"
         id="path3078"
         style="fill:#8686bf;fill-rule:evenodd;stroke:none"
         inkscape:box3dsidetype="3"
         d="m 587.02161,977.40125 1245.36039,0 0,-104.71152 -1245.36039,0 z" />
      <path
         sodipodi:type="inkscape:box3dside"
         id="path3082"
         style="fill:#afafde;fill-rule:evenodd;stroke:none"
         inkscape:box3dsidetype="13"
         d="m 587.02161,872.68973 1245.36039,0 -785.3026,-424.11218 -996.288334,0 z" />
      <path
         sodipodi:type="inkscape:box3dside"
         id="path3074"
         style="fill:#353564;fill-rule:evenodd;stroke:none"
         inkscape:box3dsidetype="6"
         d="m 587.02161,977.40125 0,-104.71152 -536.230544,-424.11218 0,83.76921 z" />
    </g>
    <path
       sodipodi:type="arc"
       style="fill:#ff0000;fill-rule:evenodd;stroke:#000000;stroke-width:1px;stroke-linecap:butt;stroke-linejoin:miter;stroke-opacity:1"
       id="path3086"
       sodipodi:cx="-3182.8572"
       sodipodi:cy="-1456.2092"
       sodipodi:rx="85.714287"
       sodipodi:ry="85.714287"
       d="m -3097.1429,-1456.2092 a 85.714287,85.714287 0 1 1 -171.4286,0 85.714287,85.714287 0 1 1 171.4286,0 z"
       transform="translate(1096,208)" />
  </g>
  <g
     inkscape:groupmode="layer"
     id="layer2"
     inkscape:label="browser img"
     style="display:inline"
     transform="translate(0,10.64217)">
    <path
       inkscape:connector-curvature="0"
       id="path4020"
       d="M 586.88312,872.51411 50.5426,448.25005 l 996.667,0.7071 784.535,424.26407 z"
       style="fill:none;stroke:#000000;stroke-width:1px;stroke-linecap:butt;stroke-linejoin:miter;stroke-opacity:1" />
    <g
       id="g5073"
       transform="translate(1096,208)">
      <g
         id="g4054">
        <path
           style="fill:#fdfdfd"
           d="m 113.44308,664.86769 c 0,0 -622.56002,-0.35363 -622.56002,-0.35363 0,0 -297.8982,-235.64787 -297.8982,-235.64787 0,0 -238.44226,-188.61614 -238.44226,-188.61614 0,0 498.41638,0.35361 498.41638,0.35361 0,0 498.250652,0.35349 498.250652,0.35349 0,0 348.798748,188.62483 348.798748,188.62483 0,0 435.73613,235.63919 435.73613,235.63919 0,0 -622.30143,-0.35348 -622.30143,-0.35348 0,0 0,0 0,0"
           id="path4070"
           inkscape:connector-curvature="0" />
        <path
           style="fill:#d6d6d6"
           d="m 113.44308,664.86769 c 0,0 -619.41617,-0.35184 -619.41617,-0.35184 0,0 -2.81239,-0.98153 -2.81239,-0.98153 0,0 -2.80969,-0.98063 -2.80969,-0.98063 0,0 -295.41997,-233.6875 -295.41997,-233.6875 0,0 -236.85186,-187.35811 -236.85186,-187.35811 0,0 0.4633,-0.62836 0.4633,-0.62836 0,0 0.4631,-0.62788 0.4631,-0.62788 0,0 495.89958,0.35182 495.89958,0.35182 0,0 495.735483,0.35171 495.735483,0.35171 0,0 2.419978,0.62972 2.419978,0.62972 0,0 2.421684,0.63019 2.421684,0.63019 0,0 346.472255,187.3667 346.472255,187.3667 0,0 432.11138,233.67898 432.11138,233.67898 0,0 0.24169,0.97876 0.24169,0.97876 0,0 0.24181,0.97967 0.24181,0.97967 0,0 -619.16018,-0.3517 -619.16018,-0.3517 0,0 0,0 0,0 m -5.82114,-3.73923 c 0,0 615.22208,0.35023 615.22208,0.35023 0,0 -395.04955,-213.9625 -395.04955,-213.9625 0,0 -322.7020405,-174.77842 -322.7020405,-174.77842 0,0 -502.6547095,-0.35129 -502.6547095,-0.35129 0,0 -502.82342,-0.35141 -502.82342,-0.35141 0,0 221.43424,174.77213 221.43424,174.77213 0,0 271.09858,213.97089 271.09858,213.97089 0,0 615.47482,0.35037 615.47482,0.35037 0,0 0,0 0,0 M -498.85404,271.55671 c 0,0 502.4557694,0.35129 502.4557694,0.35129 0,0 -12.2378896,-6.50714 -12.2378896,-6.50714 0,0 -12.1463408,-6.45847 -12.1463408,-6.45847 0,0 -17.932236,-0.12276 -17.932236,-0.12276 0,0 -17.930075,-0.12274 -17.930075,-0.12274 0,0 3.140899,0.86939 3.140899,0.86939 0,0 3.144149,0.87027 3.144149,0.87027 0,0 8.517635,4.66124 8.517635,4.66124 0,0 8.563882,4.68655 8.563882,4.68655 0,0 -0.103395,0.73804 -0.103395,0.73804 0,0 -0.10349,0.73867 -0.10349,0.73867 0,0 -446.062048,-0.31196 -446.062048,-0.31196 0,0 -446.19488,-0.31205 -446.19488,-0.31205 0,0 -2.21042,-0.80479 -2.21042,-0.80479 0,0 -2.20836,-0.80404 -2.20836,-0.80404 0,0 -6.10985,-4.66481 -6.10985,-4.66481 0,0 -6.077,-4.63972 -6.077,-4.63972 0,0 0.54768,-0.81681 0.54768,-0.81681 0,0 0.54716,-0.81603 0.54716,-0.81603 0,0 75.79199,0.0533 75.79199,0.0533 0,0 75.78815,0.0533 75.78815,0.0533 0,0 -2.98449,-0.9196 -2.98449,-0.9196 0,0 -2.98138,-0.91862 -2.98138,-0.91862 0,0 -7.21009,-3.40316 -7.21009,-3.40316 -3.95337,-1.866 -7.95036,-3.6423 -8.88975,-3.95092 0,0 -1.70703,-0.56084 -1.70703,-0.56084 0,0 -73.09087,-0.0517 -73.09087,-0.0517 0,0 -73.09444,-0.0517 -73.09444,-0.0517 0,0 0.009,0.90815 0.009,0.90815 0.005,0.49989 0.82192,2.39072 1.8176,4.20508 0,0 1.81569,3.3087 1.81569,3.3087 0,0 -0.58009,0.65306 -0.58009,0.65306 0,0 -0.58053,0.65356 -0.58053,0.65356 0,0 -30.15217,0.0858 -30.15217,0.0858 0,0 -30.15654,0.0858 -30.15654,0.0858 0,0 7.9598,6.45768 7.9598,6.45768 0,0 8.0198,6.50637 8.0198,6.50637 0,0 502.62436,0.3514 502.62436,0.3514 0,0 0,0 0,0 m -446.43055,-2.79432 c 0,0 -1.65672,-10e-4 -1.65672,-10e-4 0,0 -4.5924,-1.40664 -4.5924,-1.40664 0,0 -4.58495,-1.40436 -4.58495,-1.40436 0,0 -1.41556,-1.09134 -1.41556,-1.09134 0,0 -1.41378,-1.08997 -1.41378,-1.08997 0,0 -0.31236,-1.1313 -0.31236,-1.1313 0,0 -0.31196,-1.12982 -0.31196,-1.12982 0,0 1.48941,-0.48821 1.48941,-0.48821 0,0 1.48847,-0.48795 1.48847,-0.48795 0,0 3.44614,0.002 3.44614,0.002 0,0 3.44605,0.002 3.44605,0.002 0,0 1.61412,0.49229 1.61412,0.49229 0,0 1.61503,0.49258 1.61503,0.49258 0,0 1.70287,1.30386 1.70287,1.30386 0,0 1.70545,1.30585 1.70545,1.30585 0,0 -0.55395,0.51548 -0.55395,0.51548 0,0 -0.55436,0.5158 -0.55436,0.5158 0,0 1.57957,0.53748 1.57957,0.53748 0,0 1.58046,0.5378 1.58046,0.5378 0,0 0.21802,0.87044 0.21802,0.87044 0,0 0.21823,0.87131 0.21823,0.87131 0,0 -1.52517,0.392 -1.52517,0.392 -0.83918,0.21567 -2.27141,0.39165 -3.18261,0.39101 0,0 0,0 0,0 m -2.709,-3.31353 c 0,0 1.35704,-0.0121 1.35704,-0.0121 0,0 -2.34745,-0.60138 -2.34745,-0.60138 -1.29037,-0.33058 -2.39853,-0.52274 -2.46295,-0.42713 -0.0645,0.0956 0.38061,0.37154 0.9893,0.61321 0,0 1.10702,0.43957 1.10702,0.43957 0,0 1.35705,-0.0121 1.35705,-0.0121 0,0 -10e-6,-1e-5 -10e-6,-1e-5 m -46.09597,2.44722 c -0.76209,-0.004 -2.03383,-0.15566 -2.82545,-0.33695 -0.79138,-0.18126 -3.15069,-0.95823 -5.24129,-1.72601 -2.0888,-0.7671 -3.9851,-1.54286 -4.2156,-1.72448 -0.2305,-0.18159 -0.038,-1.06943 0.4273,-1.97217 0,0 0.8445,-1.63891 0.8445,-1.63891 0,0 1.4805,0.001 1.4805,0.001 0,0 1.4803,10e-4 1.4803,10e-4 0,0 2.002,0.74038 2.002,0.74038 0,0 2.0036,0.74101 2.0036,0.74101 0,0 3.25318,0.39274 3.25318,0.39274 0,0 3.25458,0.39293 3.25458,0.39293 0,0 1.80766,0.71643 1.80766,0.71643 0,0 1.80909,0.71704 1.80909,0.71704 0,0 0.0242,0.70211 0.0242,0.70211 0,0 0.0244,0.70268 0.0244,0.70268 0,0 -2.28764,0.35925 -2.28764,0.35925 0,0 -2.28867,0.35941 -2.28867,0.35941 0,0 -0.0833,0.78951 -0.0833,0.78951 0,0 -0.0833,0.79024 -0.0833,0.79024 0,0 -1.38605,-0.007 -1.38605,-0.007 0,0 0,0 0,0 m 975.626047,0.6895 c 0,0 -5.138694,-0.004 -5.138694,-0.004 0,0 -1.604623,-0.5167 -1.604623,-0.5167 0,0 -1.603665,-0.5164 -1.603665,-0.5164 0,0 -4.620919,-2.47225 -4.620919,-2.47225 0,0 -4.607721,-2.4652 -4.607721,-2.4652 0,0 -0.144931,-0.51213 -0.144931,-0.51213 0,0 -0.144764,-0.51182 -0.144764,-0.51182 0,0 5.117856,0.004 5.117856,0.004 0,0 5.117919,0.004 5.117919,0.004 0,0 1.59834,0.51284 1.59834,0.51284 0,0 1.59929,0.51314 1.59929,0.51314 0,0 4.626497,2.4652 4.626497,2.4652 0,0 4.639747,2.47226 4.639747,2.47226 0,0 0.152127,0.51537 0.152127,0.51537 0,0 0.152135,0.51568 0.152135,0.51568 0,0 -5.138594,-0.004 -5.138594,-0.004 0,0 0,0 0,0 m -949.771037,-1.0777 c 0,0 -1.4612,-0.001 -1.4612,-0.001 0,0 -1.40377,-0.77868 -1.40377,-0.77868 0,0 -1.40244,-0.77797 -1.40244,-0.77797 0,0 -3.4144,-0.25283 -3.4144,-0.25283 0,0 -3.41343,-0.25277 -3.41343,-0.25277 0,0 -1.2654,-0.62028 -1.2654,-0.62028 0,0 -1.26442,-0.61985 -1.26442,-0.61985 0,0 -0.31852,-0.60525 -0.31852,-0.60525 0,0 -0.31821,-0.60483 -0.31821,-0.60483 0,0 2.60599,-0.27691 2.60599,-0.27691 0,0 2.60507,-0.27682 2.60507,-0.27682 0,0 0.0834,-0.75742 0.0834,-0.75742 0,0 0.0834,-0.75675 0.0834,-0.75675 0,0 1.01076,7.1e-4 1.01076,7.1e-4 0,0 1.01085,7.1e-4 1.01085,7.1e-4 0,0 4.33664,1.35409 4.33664,1.35409 0,0 4.34353,1.35621 4.34353,1.35621 0,0 0.80072,0.61934 0.80072,0.61934 0,0 0.8013,0.61979 0.8013,0.61979 0,0 -0.9786,1.31477 -0.9786,1.31477 0,0 -0.98008,1.31678 -0.98008,1.31678 0,0 -1.4612,-0.001 -1.4612,-0.001 0,0 0,0 0,0 m 27.80147,-10.63965 c 0,0 -6.27036,-0.004 -6.27036,-0.004 0,0 -1.69023,-0.57266 -1.69023,-0.57266 0,0 -1.68903,-0.57229 -1.68903,-0.57229 0,0 -4.20331,-3.39255 -4.20331,-3.39255 0,0 -4.18672,-3.37917 -4.18672,-3.37917 0,0 7.64583,0.005 7.64583,0.005 0,0 7.64579,0.005 7.64579,0.005 0,0 4.68786,3.3795 4.68786,3.3795 0,0 4.70643,3.39289 4.70643,3.39289 0,0 -0.18786,0.57096 -0.18786,0.57096 0,0 -0.18807,0.57134 -0.18807,0.57134 0,0 -6.27033,-0.004 -6.27033,-0.004 0,0 0,0 0,0 m 35.7758,-1.78486 c 0,0 -26.83527,0.003 -26.83527,0.003 0,0 -1.21418,-0.26858 -1.21418,-0.26858 0,0 -1.2138,-0.2685 -1.2138,-0.2685 0,0 -2.66873,-1.68411 -2.66873,-1.68411 0,0 -2.66342,-1.6808 -2.66342,-1.6808 0,0 3.07633,-0.037 3.07633,-0.037 1.69201,-0.0203 9.77364,-0.0601 17.95893,-0.0885 0,0 14.88135,-0.0515 14.88135,-0.0515 0,0 0.46064,-0.7075 0.46064,-0.7075 0.2532,-0.38887 0.58964,-0.70681 0.74776,-0.7067 0.15812,1.1e-4 1.31628,0.30936 2.57414,0.68738 0,0 2.28847,0.68773 2.28847,0.68773 0,0 10.25114,0.0656 10.25114,0.0656 0,0 10.25169,0.0656 10.25169,0.0656 0,0 2.10843,0.30098 2.10843,0.30098 0,0 2.10915,0.30108 2.10915,0.30108 0,0 -0.70523,-0.84263 -0.70523,-0.84263 0,0 -0.70454,-0.8418 -0.70454,-0.8418 0,0 1.9993,0.001 1.9993,0.001 0,0 1.99928,0.001 1.99928,0.001 0,0 2.96654,0.78444 2.96654,0.78444 0,0 2.96925,0.78515 2.96925,0.78515 0,0 0.12544,0.83666 0.12544,0.83666 0,0 0.12556,0.83748 0.12556,0.83748 0,0 0.83365,5.8e-4 0.83365,5.8e-4 0,0 0.83356,5.9e-4 0.83356,5.9e-4 0,0 -0.59393,-0.97936 -0.59393,-0.97936 0,0 -0.59333,-0.97824 -0.59333,-0.97824 0,0 1.188,-0.19588 1.188,-0.19588 0.65326,-0.10771 4.49129,-0.20527 8.52897,-0.21681 0,0 7.34089,-0.021 7.34089,-0.021 0,0 1.49527,0.49506 1.49527,0.49506 0.82272,0.2724 2.33555,0.95067 3.36217,1.50752 0,0 1.86824,1.01338 1.86824,1.01338 0,0 0.0359,0.49925 0.0359,0.49925 0,0 0.0359,0.49955 0.0359,0.49955 0,0 -10.57854,0.20137 -10.57854,0.20137 0,0 -10.58111,0.20141 -10.58111,0.20141 0,0 -3.76831,-0.24929 -3.76831,-0.24929 0,0 -3.76724,-0.24923 -3.76724,-0.24923 0,0 -0.765,-0.56382 -0.765,-0.56382 0,0 -0.7645,-0.56347 -0.7645,-0.56347 0,0 -0.77857,-5.4e-4 -0.77857,-5.4e-4 -0.42826,-3.1e-4 -0.67149,0.36489 -0.54053,0.81176 0,0 0.23826,0.81309 0.23826,0.81309 0,0 -1.94326,-10e-4 -1.94326,-10e-4 0,0 -1.94326,-0.001 -1.94326,-0.001 0,0 -1.06664,-0.41394 -1.06664,-0.41394 0,0 -1.06612,-0.41374 -1.06612,-0.41374 0,0 -0.53218,0.31101 -0.53218,0.31101 0,0 -0.53238,0.31111 -0.53238,0.31111 0,0 -26.83412,0.003 -26.83412,0.003 0,0 2e-5,2e-5 2e-5,2e-5 m 95.56279,-0.29405 c 0,0 -3.39136,0.0641 -3.39136,0.0641 0,0 -1.15323,-0.53648 -1.15323,-0.53648 -0.63402,-0.29492 -1.88526,-1.14748 -2.78016,-1.89407 0,0 -1.62497,-1.35577 -1.62497,-1.35577 0,0 3.62566,0.003 3.62566,0.003 0,0 3.62565,0.003 3.62565,0.003 0,0 2.542,1.82455 2.542,1.82455 0,0 2.54742,1.82843 2.54742,1.82843 0,0 -3.39101,0.0641 -3.39101,0.0641 0,0 0,0 0,0 m 327.79272,14.60806 c 0,0 444.444533,0.2074 444.444533,0.2074 0,0 -4.241649,-2.45966 -4.241649,-2.45966 0,0 -4.229536,-2.45267 -4.229536,-2.45267 0,0 -0.278871,0.78547 -0.278871,0.78547 0,0 -0.279117,0.78619 -0.279117,0.78619 0,0 2.082933,0.8987 2.082933,0.8987 0,0 2.0851,0.89963 2.0851,0.89963 0,0 -0.268156,0.48808 -0.268156,0.48808 0,0 -0.268381,0.48837 -0.268381,0.48837 0,0 -2.510607,-0.45762 -2.510607,-0.45762 0,0 -2.509285,-0.45738 -2.509285,-0.45738 0,0 -0.85362,0.45817 -0.85362,0.45817 0,0 -0.854155,0.45841 -0.854155,0.45841 0,0 -1.566682,-0.22631 -1.566682,-0.22631 0,0 -1.566355,-0.22625 -1.566355,-0.22625 0,0 -2.569431,-1.41356 -2.569431,-1.41356 0,0 -2.565228,-1.41124 -2.565228,-1.41124 0,0 -1.648565,-0.23785 -1.648565,-0.23785 0,0 -1.648106,-0.23777 -1.648106,-0.23777 0,0 -1.444675,-0.7954 -1.444675,-0.7954 0,0 -1.443345,-0.79466 -1.443345,-0.79466 0,0 1.609599,-0.41675 1.609599,-0.41675 0,0 1.608823,-0.41655 1.608823,-0.41655 0,0 -0.649777,-0.85217 -0.649777,-0.85217 0,0 -0.649135,-0.85133 -0.649135,-0.85133 0,0 1.09307,7.7e-4 1.09307,7.7e-4 0,0 1.093069,7.7e-4 1.093069,7.7e-4 0,0 3.193354,1.0255 3.193354,1.0255 0,0 3.197233,1.02673 3.197233,1.02673 0,0 1.440724,0.001 1.440724,0.001 0,0 1.440641,10e-4 1.440641,10e-4 0,0 1.961024,0.51407 1.961024,0.51407 0,0 1.962271,0.51438 1.962271,0.51438 0,0 -3.627333,-1.84792 -3.627333,-1.84792 0,0 -3.619493,-1.84398 -3.619493,-1.84398 0,0 -442.461582,-0.31101 -442.461582,-0.31101 0,0 -442.59228,-0.31111 -442.59228,-0.31111 0,0 5.10939,4.07299 5.10939,4.07299 2.8205,2.24837 5.64198,4.33828 6.26337,4.63901 0,0 1.13038,0.54704 1.13038,0.54704 0,0 444.62985,0.20749 444.62985,0.20749 0,0 0,0 0,0 m -437.43193,-1.06201 c -1.66571,-0.0191 -3.60974,-0.12883 -4.31995,-0.24384 0,0 -1.29108,-0.20908 -1.29108,-0.20908 0,0 -3.91016,-2.97576 -3.91016,-2.97576 0,0 -3.89674,-2.96553 -3.89674,-2.96553 0,0 0.32618,-0.49145 0.32618,-0.49145 0,0 0.32599,-0.49116 0.32599,-0.49116 0,0 2.02235,10e-4 2.02235,10e-4 0,0 2.02235,0.001 2.02235,0.001 0,0 3.7261,1.10335 3.7261,1.10335 0,0 3.73086,1.10476 3.73086,1.10476 0,0 3.09859,2.34721 3.09859,2.34721 0,0 3.10704,2.3536 3.10704,2.3536 0,0 -0.95628,0.24985 -0.95628,0.24985 -0.52609,0.13745 -2.3195,0.2343 -3.98525,0.21521 0,0 0,0 0,0 m -2.33388,-2.0311 c 0,0 1.96097,10e-4 1.96097,10e-4 0,0 -1.35796,-1.03013 -1.35796,-1.03013 0,0 -1.35635,-1.02891 -1.35635,-1.02891 0,0 -0.83215,-5.9e-4 -0.83215,-5.9e-4 0,0 -0.83206,-5.8e-4 -0.83206,-5.8e-4 0,0 -2.26342,-1.09516 -2.26342,-1.09516 0,0 -2.26055,-1.09377 -2.26055,-1.09377 0,0 -0.28918,0.43725 -0.28918,0.43725 0,0 -0.28925,0.43746 -0.28925,0.43746 0,0 2.77677,1.6842 2.77677,1.6842 0,0 2.7822,1.68748 2.7822,1.68748 0,0 1.96098,0.001 1.96098,0.001 0,0 0,0 0,0 m 856.951282,2.24326 c -0.81813,-0.004 -2.817491,-0.24103 -4.442359,-0.52682 0,0 -2.952882,-0.51938 -2.952882,-0.51938 0,0 -2.868302,-1.02352 -2.868302,-1.02352 -1.576077,-0.56241 -3.648703,-1.45323 -4.606181,-1.97963 0,0 -1.739596,-0.95627 -1.739596,-0.95627 0,0 0.201545,-1.19808 0.201545,-1.19808 0,0 0.201258,-1.19642 0.201258,-1.19642 0,0 2.382464,0.002 2.382464,0.002 0,0 2.382542,0.002 2.382542,0.002 0,0 3.534284,0.81854 3.534284,0.81854 0,0 3.537714,0.81931 3.537714,0.81931 0,0 3.132659,1.25224 3.132659,1.25224 0,0 3.13729,1.25406 3.13729,1.25406 0,0 -0.337754,0.69074 -0.337754,0.69074 -0.185901,0.38014 0.07995,0.92182 0.591057,1.20366 0,0 0.929706,0.51266 0.929706,0.51266 0,0 -0.797787,0.42624 -0.797787,0.42624 -0.438901,0.23451 -1.467606,0.42323 -2.285902,0.41932 0,0 2.44e-4,0 2.44e-4,0 m -3.284984,-2.3078 c 0.668055,-0.14399 1.231449,-0.28505 1.252002,-0.31349 0.02062,-0.0285 -1.051553,-0.54889 -2.382091,-1.15617 0,0 -2.416509,-1.10306 -2.416509,-1.10306 0,0 -1.530914,-0.22086 -1.530914,-0.22086 0,0 -1.530614,-0.22081 -1.530614,-0.22081 0,0 -0.747752,0.22337 -0.747752,0.22337 -0.411353,0.12287 -0.443147,0.51304 -0.07053,0.86715 0,0 0.677917,0.6442 0.677917,0.6442 0,0 2.765534,0.77043 2.765534,0.77043 0,0 2.768005,0.77111 2.768005,0.77111 0,0 1.214951,-0.26187 1.214951,-0.26187 0,0 0,0 0,0 m -837.572237,0.90005 c 0,0 -3.08603,-0.002 -3.08603,-0.002 0,0 -1.60956,-0.54445 -1.60956,-0.54445 0,0 -1.60855,-0.54412 -1.60855,-0.54412 0,0 -2.09594,-1.41352 -2.09594,-1.41352 0,0 -2.09261,-1.41121 -2.09261,-1.41121 0,0 13.79576,0.01 13.79576,0.01 0,0 13.79564,0.01 13.79564,0.01 0,0 1.77035,1.1307 1.77035,1.1307 0,0 1.77267,1.13219 1.77267,1.13219 0,0 1.11476,7.8e-4 1.11476,7.8e-4 0,0 1.11468,7.8e-4 1.11468,7.8e-4 0,0 -1.6652,-1.12851 -1.6652,-1.12851 0,0 -1.6631,-1.12703 -1.6631,-1.12703 0,0 7.16562,-0.0975 7.16562,-0.0975 0,0 7.16474,-0.0975 7.16474,-0.0975 0,0 0.0649,-0.61897 0.0649,-0.61897 0.0358,-0.34024 0.48083,-0.61822 0.98906,-0.61787 0.5083,3.6e-4 2.0046,0.32579 3.3257,0.72336 0,0 2.40355,0.72331 2.40355,0.72331 0,0 12.63584,-0.0763 12.63584,-0.0763 0,0 12.63448,-0.0762 12.63448,-0.0762 0,0 1.0085,0.39003 1.0085,0.39003 0,0 1.00896,0.3902 1.00896,0.3902 0,0 1.57564,10e-4 1.57564,10e-4 0,0 1.57563,10e-4 1.57563,10e-4 0,0 -1.09232,-0.79762 -1.09232,-0.79762 -0.60035,-0.43837 -0.91527,-0.89296 -0.70012,-1.01039 0,0 0.39117,-0.21346 0.39117,-0.21346 0,0 3.58609,0.42255 3.58609,0.42255 0,0 3.58791,0.42274 3.58791,0.42274 0,0 1.31776,0.61843 1.31776,0.61843 0,0 1.31871,0.61887 1.31871,0.61887 0,0 -0.27959,0.46522 -0.27959,0.46522 -0.15389,0.25599 -0.0762,0.61367 0.17252,0.79482 0,0 0.45244,0.32947 0.45244,0.32947 0,0 1.85323,10e-4 1.85323,10e-4 0,0 1.85315,0.001 1.85315,0.001 0,0 -0.7489,-1.1866 -0.7489,-1.1866 0,0 -0.74787,-1.18497 -0.74787,-1.18497 0,0 10.58524,-0.008 10.58524,-0.008 0,0 10.58497,-0.008 10.58497,-0.008 0,0 1.68883,0.55835 1.68883,0.55835 0,0 1.68991,0.55872 1.68991,0.55872 0,0 1.63792,1.36448 1.63792,1.36448 0,0 1.64058,1.36663 1.64058,1.36663 0,0 -16.76526,0.0472 -16.76526,0.0472 0,0 -16.76658,0.0472 -16.76658,0.0472 0,0 -1.72706,-0.57528 -1.72706,-0.57528 -0.94948,-0.31625 -2.19063,-0.57523 -2.75865,-0.57563 0,0 -1.03258,-7.2e-4 -1.03258,-7.2e-4 0,0 0.37779,0.61805 0.37779,0.61805 0,0 0.37805,0.6185 0.37805,0.6185 0,0 -2.48289,-0.002 -2.48289,-0.002 0,0 -2.48298,-0.002 -2.48298,-0.002 0,0 -2.47206,-1.09344 -2.47206,-1.09344 0,0 -2.46893,-1.09206 -2.46893,-1.09206 0,0 0.88715,0.98801 0.88715,0.98801 0,0 0.88817,0.98915 0.88817,0.98915 0,0 -18.10202,0.0733 -18.10202,0.0733 0,0 -18.10406,0.0734 -18.10406,0.0734 0,0 -1.54431,-0.41625 -1.54431,-0.41625 0,0 -1.54358,-0.41606 -1.54358,-0.41606 0,0 0.046,0.37762 0.046,0.37762 0,0 0.0461,0.37778 0.0461,0.37778 0,0 -4.5406,0.0507 -4.5406,0.0507 0,0 -4.54089,0.0507 -4.54089,0.0507 0,0 -1.91817,-0.51604 -1.91817,-0.51604 0,0 -1.91703,-0.51574 -1.91703,-0.51574 0,0 0.34495,0.51517 0.34495,0.51517 0,0 0.34524,0.51548 0.34524,0.51548 0,0 -3.02289,-0.002 -3.02289,-0.002 0,0 -3.02299,-0.002 -3.02299,-0.002 0,0 -1.76288,-0.51647 -1.76288,-0.51647 0,0 -1.76183,-0.51616 -1.76183,-0.51616 0,0 0.31181,0.51515 0.31181,0.51515 0,0 0.31191,0.51545 0.31191,0.51545 0,0 -3.08603,-0.002 -3.08603,-0.002 0,0 0,0 0,0 m 49.78597,-1.61277 c 0.44691,3.1e-4 0.56117,-0.18477 0.25401,-0.41124 -0.30709,-0.22642 -0.92376,-0.41187 -1.37045,-0.41219 -0.44669,-3.1e-4 -0.56115,0.18464 -0.25427,0.41105 0.30695,0.22647 0.92381,0.41207 1.37071,0.41238 0,0 0,0 0,0 m 39.00199,0.0273 c 0.44689,3.2e-4 0.55696,-0.18477 0.24468,-0.41124 -0.31219,-0.22641 -0.93303,-0.41187 -1.37971,-0.41219 -0.44668,-3.1e-4 -0.55695,0.18464 -0.24496,0.41105 0.31207,0.22647 0.93309,0.41207 1.37999,0.41238 0,0 0,0 0,0 m 765.552698,0.94822 c 0,0 1.639971,10e-4 1.639971,10e-4 0,0 -0.510454,-0.86322 -0.510454,-0.86322 -0.280443,-0.4744 -0.712551,-0.90965 -0.960245,-0.96746 -0.247678,-0.0578 -1.511638,-0.2989 -2.808461,-0.53569 0,0 -2.35705,-0.43038 -2.35705,-0.43038 0,0 -0.726444,0.60805 -0.726444,0.60805 0,0 -0.726959,0.60848 -0.726959,0.60848 0,0 2.403734,0.7886 2.403734,0.7886 0,0 2.405935,0.78932 2.405935,0.78932 0,0 1.639973,0.001 1.639973,0.001 0,0 0,0 0,0"
           id="path4068"
           inkscape:connector-curvature="0" />
        <path
           style="fill:#b1b1b1"
           d="m 113.44308,664.86769 c 0,0 -619.41617,-0.35184 -619.41617,-0.35184 0,0 -2.81239,-0.98153 -2.81239,-0.98153 0,0 -2.80969,-0.98063 -2.80969,-0.98063 0,0 -295.41997,-233.6875 -295.41997,-233.6875 0,0 -236.85186,-187.35811 -236.85186,-187.35811 0,0 0.4633,-0.62836 0.4633,-0.62836 0,0 0.4631,-0.62788 0.4631,-0.62788 0,0 495.89958,0.35182 495.89958,0.35182 0,0 495.735483,0.35171 495.735483,0.35171 0,0 2.419978,0.62972 2.419978,0.62972 0,0 2.421684,0.63019 2.421684,0.63019 0,0 346.472255,187.3667 346.472255,187.3667 0,0 432.11138,233.67898 432.11138,233.67898 0,0 0.24169,0.97876 0.24169,0.97876 0,0 0.24181,0.97967 0.24181,0.97967 0,0 -619.16018,-0.3517 -619.16018,-0.3517 0,0 0,0 0,0 m -4.85237,-3.11694 c 0,0 616.40273,0.35077 616.40273,0.35077 0,0 -412.01534,-222.97304 -412.01534,-222.97304 0,0 -333.706064,-180.59394 -333.706064,-180.59394 0,0 -384.215536,-0.37272 -384.215536,-0.37272 0,0 -384.26813,-0.37277 -384.26813,-0.37277 0,0 -2.97513,-0.84897 -2.97513,-0.84897 0,0 -2.97211,-0.84814 -2.97211,-0.84814 0,0 -6.53264,-3.1211 -6.53264,-3.1211 -3.58288,-1.71177 -7.59973,-3.51956 -8.93203,-4.02013 0,0 -2.42041,-0.90937 -2.42041,-0.90937 0,0 -73.95784,-0.0523 -73.95784,-0.0523 0,0 -73.9615,-0.0523 -73.9615,-0.0523 0,0 0.0108,0.90772 0.0108,0.90772 0.006,0.49966 0.82811,2.27409 1.82886,3.94588 0,0 1.82449,3.04801 1.82449,3.04801 0,0 -0.47202,0.91096 -0.47202,0.91096 0,0 -0.47252,0.91194 -0.47252,0.91194 0,0 -30.26833,0.0855 -30.26833,0.0855 0,0 -30.27259,0.0855 -30.27259,0.0855 0,0 228.53389,180.58635 228.53389,180.58635 0,0 282.18493,222.98119 282.18493,222.98119 0,0 616.65645,0.35091 616.65645,0.35091 0,0 0,0 0,0 M -946.20928,267.93592 c 0,0 -1.71803,-0.001 -1.71803,-0.001 0,0 -3.31399,-1.01474 -3.31399,-1.01474 0,0 -3.31004,-1.01357 -3.31004,-1.01357 0,0 -1.06852,-0.82319 -1.06852,-0.82319 -0.58725,-0.45242 -1.25033,-1.28094 -1.47374,-1.84105 0,0 -0.40575,-1.01744 -0.40575,-1.01744 0,0 1.6238,-0.46604 1.6238,-0.46604 0,0 1.62291,-0.46579 1.62291,-0.46579 0,0 2.90287,0.13401 2.90287,0.13401 0,0 2.90331,0.13403 2.90331,0.13403 0,0 1.73257,1.13088 1.73257,1.13088 0,0 1.73475,1.13236 1.73475,1.13236 0,0 -1.05161,0.27284 -1.05161,0.27284 0,0 -1.05203,0.27292 -1.05203,0.27292 0,0 -3.06062,-0.64683 -3.06062,-0.64683 0,0 -3.05834,-0.64636 -3.05834,-0.64636 0,0 -0.30418,0.45032 -0.30418,0.45032 -0.16735,0.24778 0.12024,0.77718 0.63939,1.17656 0,0 0.94451,0.72661 0.94451,0.72661 0,0 2.12658,0.42759 2.12658,0.42759 1.17001,0.23527 3.06622,0.42846 4.21351,0.42926 0,0 2.08589,0.001 2.08589,0.001 0,0 0.5189,0.39788 0.5189,0.39788 0.28549,0.21891 0.0618,0.58983 -0.49728,0.82427 -0.55919,0.23451 -1.79,0.42588 -2.73486,0.42521 0,0 0,0 0,0 m -48.50992,-0.70329 c 0,0 -0.82262,0.21223 -0.82262,0.21223 0,0 -4.31344,-1.43799 -4.31344,-1.43799 -2.36944,-0.78987 -4.48724,-1.57799 -4.70824,-1.752 -0.221,-0.17397 0.085,-0.95067 0.6804,-1.72541 0,0 1.0805,-1.40682 1.0805,-1.40682 0,0 1.5404,0.6108 1.5404,0.6108 0.8477,0.33612 1.72362,0.74976 1.94627,0.91912 0,0 0.40471,0.308 0.40471,0.308 0,0 2.36802,0.002 2.36802,0.002 1.3024,9.1e-4 3.08896,0.11426 3.97025,0.25191 0,0 1.6027,0.25031 1.6027,0.25031 0,0 0.93899,0.73431 0.93899,0.73431 0,0 0.93979,0.73493 0.93979,0.73493 0,0 -0.96564,0.24902 -0.96564,0.24902 -0.53124,0.13698 -1.88444,0.24844 -3.00709,0.24765 0,0 -2.04115,-0.001 -2.04115,-0.001 0,0 0.60384,0.7954 0.60384,0.7954 0,0 0.60449,0.79613 0.60449,0.79613 0,0 -0.82242,0.21218 -0.82242,0.21218 0,0 2.4e-4,0 2.4e-4,0 m 975.525227,0.92732 c 0,0 -3.252257,-0.002 -3.252257,-0.002 0,0 -1.44486,-0.30392 -1.44486,-0.30392 0,0 -1.444443,-0.30383 -1.444443,-0.30383 0,0 -4.836557,-2.67784 -4.836557,-2.67784 0,0 -4.821597,-2.66955 -4.821597,-2.66955 0,0 4.86161,0.003 4.86161,0.003 0,0 4.861593,0.003 4.861593,0.003 0,0 4.987585,2.66967 4.987585,2.66967 0,0 5.003061,2.67795 5.003061,2.67795 0,0 -0.330353,0.30258 -0.330353,0.30258 0,0 -0.330394,0.30268 -0.330394,0.30268 0,0 -3.25225,-0.002 -3.25225,-0.002 0,0 -0.0011,0 -0.0011,0 m -46.711315,-0.43238 c 0,0 -2.390741,-0.002 -2.390741,-0.002 0,0 -3.117747,-0.82619 -3.117747,-0.82619 0,0 -3.114776,-0.8254 -3.114776,-0.8254 0,0 -2.488434,-1.37682 -2.488434,-1.37682 0,0 -2.484476,-1.37463 -2.484476,-1.37463 0,0 0.254437,-0.67826 0.254437,-0.67826 0,0 0.25431,-0.67773 0.25431,-0.67773 0,0 2.848892,0.002 2.848892,0.002 0,0 2.848806,0.002 2.848806,0.002 0,0 2.663179,0.74054 2.663179,0.74054 1.465761,0.40756 3.417872,1.10108 4.337912,1.54118 0,0 1.673999,0.80076 1.673999,0.80076 0,0 -0.585646,0.12403 -0.585646,0.12403 0,0 -0.585732,0.12405 -0.585732,0.12405 0,0 -1.616132,-0.74184 -1.616132,-0.74184 -0.888264,-0.40774 -2.619986,-0.97269 -3.848276,-1.25553 -1.227889,-0.28275 -2.865997,-0.51447 -3.640588,-0.51502 0,0 -1.408303,-9.8e-4 -1.408303,-9.8e-4 0,0 -0.106806,0.6442 -0.106806,0.6442 0,0 -0.106805,0.64469 -0.106805,0.64469 0,0 1.380803,0.76359 1.380803,0.76359 0,0 1.382027,0.76426 1.382027,0.76426 0,0 2.446673,0.64811 2.446673,0.64811 0,0 2.448587,0.64859 2.448587,0.64859 0,0 2.427382,0.002 2.427382,0.002 0,0 2.42746,0.002 2.42746,0.002 0,0 0.245308,0.41208 0.245308,0.41208 0,0 0.245425,0.41227 0.245425,0.41227 0,0 -2.390738,-0.002 -2.390738,-0.002 0,0 0,0 0,0 m -840.21746,-1.18498 c 0,0 -2.79259,0.0484 -2.79259,0.0484 0,0 -2.47572,-1.23157 -2.47572,-1.23157 -1.36018,-0.67663 -2.57347,-1.30638 -2.69723,-1.39993 -0.12374,-0.0935 0.45788,-0.13668 1.29252,-0.0959 0.83468,0.0408 1.65974,0.0437 1.83345,0.006 0.17369,-0.0373 1.77549,-0.13453 3.5593,-0.21616 0,0 3.24301,-0.14839 3.24301,-0.14839 0,0 0.97834,0.38406 0.97834,0.38406 0,0 0.97885,0.38423 0.97885,0.38423 0,0 0.49394,-0.2643 0.49394,-0.2643 0.27152,-0.14533 1.84007,-0.31676 3.48552,-0.38098 0,0 2.99138,-0.11675 2.99138,-0.11675 0,0 1.01425,0.39733 1.01425,0.39733 0,0 1.01472,0.39751 1.01472,0.39751 0,0 0.42554,-0.407 0.42554,-0.407 0,0 0.42534,-0.40682 0.42534,-0.40682 0,0 1.58367,0.35028 1.58367,0.35028 0,0 1.58439,0.35042 1.58439,0.35042 0,0 0.80554,-0.21081 0.80554,-0.21081 0,0 0.80535,-0.21075 0.80535,-0.21075 0,0 0.69004,0.55798 0.69004,0.55798 0.37931,0.30704 0.90082,0.92866 1.15828,1.38151 0,0 0.46849,0.82396 0.46849,0.82396 0,0 -2.74963,0.009 -2.74963,0.009 0,0 -2.74967,0.009 -2.74967,0.009 0,0 -1.83984,-0.62966 -1.83984,-0.62966 0,0 -1.83851,-0.6292 -1.83851,-0.6292 0,0 0.0254,0.61737 0.0254,0.61737 0,0 0.0254,0.61782 0.0254,0.61782 0,0 -2.65806,0.009 -2.65806,0.009 0,0 -2.65811,0.009 -2.65811,0.009 0,0 -1.8366,-0.62966 -1.8366,-0.62966 0,0 -1.83526,-0.6292 -1.83526,-0.6292 0,0 0.0206,0.60316 0.0206,0.60316 0,0 0.0206,0.60358 0.0206,0.60358 0,0 -2.79242,0.0484 -2.79242,0.0484 0,0 -1.6e-4,6e-5 -1.6e-4,6e-5 m 29.83598,0.023 c 0,0 -2.54437,0.0463 -2.54437,0.0463 0,0 -2.49712,-1.23158 -2.49712,-1.23158 -1.37195,-0.67663 -2.60952,-1.31634 -2.75121,-1.42205 -0.14166,-0.10569 0.60227,-0.0949 1.65336,0.0239 0,0 1.91143,0.21611 1.91143,0.21611 0,0 -0.0461,-0.37736 -0.0461,-0.37736 0,0 -0.0461,-0.37719 -0.0461,-0.37719 0,0 1.78008,0.36627 1.78008,0.36627 0,0 1.78075,0.36642 1.78075,0.36642 0,0 2.22744,-0.38172 2.22744,-0.38172 0,0 2.22636,-0.38156 2.22636,-0.38156 0,0 1.86132,0.24695 1.86132,0.24695 0,0 1.86185,0.24701 1.86185,0.24701 0,0 -0.59882,-0.82843 -0.59882,-0.82843 0,0 -0.59824,-0.82763 -0.59824,-0.82763 0,0 4.57263,1.02278 4.57263,1.02278 0,0 4.57804,1.02399 4.57804,1.02399 0,0 0.90875,-0.50164 0.90875,-0.50164 0,0 0.90814,-0.50135 0.90814,-0.50135 0,0 0.94155,0.28309 0.94155,0.28309 0,0 0.94187,0.28318 0.94187,0.28318 0,0 -0.1772,0.62612 -0.1772,0.62612 0,0 -0.17741,0.62657 -0.17741,0.62657 0,0 1.87848,0.62847 1.87848,0.62847 0,0 1.87976,0.62892 1.87976,0.62892 0,0 -0.1747,0.28332 -0.1747,0.28332 0,0 -0.17475,0.28341 -0.17475,0.28341 0,0 -2.4083,-0.535 -2.4083,-0.535 0,0 -2.4068,-0.53467 -2.4068,-0.53467 0,0 -0.27603,0.44541 -0.27603,0.44541 0,0 -0.27617,0.44563 -0.27617,0.44563 0,0 -2.22198,-0.002 -2.22198,-0.002 0,0 -2.22198,-0.002 -2.22198,-0.002 0,0 -1.67383,-0.84767 -1.67383,-0.84767 0,0 -1.6721,-0.84683 -1.6721,-0.84683 0,0 -0.71955,0.16765 -0.71955,0.16765 0,0 -0.71961,0.16768 -0.71961,0.16768 0,0 1.15319,0.67845 1.15319,0.67845 0,0 1.15418,0.67898 1.15418,0.67898 0,0 -1.49935,-0.001 -1.49935,-0.001 0,0 -1.49927,-10e-4 -1.49927,-10e-4 0,0 -1.52273,-0.45957 -1.52273,-0.45957 0,0 -1.52183,-0.45933 -1.52183,-0.45933 0,0 -0.62461,0.34286 -0.62461,0.34286 -0.3436,0.18862 -1.7697,0.36382 -3.16901,0.38929 0,0 3e-5,3e-5 3e-5,3e-5 m 13.37974,-1.04412 c 0,0 1.21884,8.5e-4 1.21884,8.5e-4 0,0 -0.55681,-0.41181 -0.55681,-0.41181 0,0 -0.55654,-0.41161 -0.55654,-0.41161 0,0 -1.21825,-8.6e-4 -1.21825,-8.6e-4 0,0 -1.21826,-8.5e-4 -1.21826,-8.5e-4 0,0 0.55596,0.41161 0.55596,0.41161 0,0 0.55623,0.41181 0.55623,0.41181 0,0 1.21883,8.6e-4 1.21883,8.6e-4 0,0 0,0 0,0 m 14.79594,1.24581 c 0,0 -1.82223,-0.001 -1.82223,-0.001 0,0 -1.64746,-0.49554 -1.64746,-0.49554 -0.9057,-0.27243 -2.04895,-0.79187 -2.54063,-1.15425 -0.49147,-0.36223 -0.75636,-0.88031 -0.58888,-1.15135 0,0 0.30438,-0.49257 0.30438,-0.49257 0,0 1.70432,10e-4 1.70432,10e-4 0,0 1.70432,0.001 1.70432,0.001 0,0 1.7744,0.51457 1.7744,0.51457 0,0 1.77545,0.51488 1.77545,0.51488 0,0 -0.32773,-0.51386 -0.32773,-0.51386 0,0 -0.32745,-0.51356 -0.32745,-0.51356 0,0 1.43438,10e-4 1.43438,10e-4 0,0 1.43446,0.001 1.43446,0.001 0,0 1.0696,1.43498 1.0696,1.43498 0,0 1.07146,1.43737 1.07146,1.43737 0,0 -1.65913,-0.21999 -1.65913,-0.21999 0,0 -1.65872,-0.21994 -1.65872,-0.21994 0,0 0.0608,0.42859 0.0608,0.42859 0,0 0.0609,0.42881 0.0609,0.42881 0,0 -1.82222,-10e-4 -1.82222,-10e-4 0,0 0,0 0,0 m -1.7951,-1.2367 c 0,0 1.21882,8.6e-4 1.21882,8.6e-4 0,0 -0.5599,-0.41182 -0.5599,-0.41182 0,0 -0.55964,-0.41161 -0.55964,-0.41161 0,0 -1.21824,-8.6e-4 -1.21824,-8.6e-4 0,0 -1.21824,-8.5e-4 -1.21824,-8.5e-4 0,0 0.55905,0.41162 0.55905,0.41162 0,0 0.55933,0.41181 0.55933,0.41181 0,0 1.21882,8.5e-4 1.21882,8.5e-4 0,0 0,0 0,0 m 13.65732,1.24501 c 0,0 -1.61365,-10e-4 -1.61365,-10e-4 0,0 -1.79667,-0.59942 -1.79667,-0.59942 0,0 -1.79544,-0.59899 -1.79544,-0.59899 0,0 -0.67943,-0.69605 -0.67943,-0.69605 0,0 -0.67879,-0.69548 -0.67879,-0.69548 0,0 0.79557,-0.44826 0.79557,-0.44826 0,0 0.79507,-0.44802 0.79507,-0.44802 0,0 4.03473,0.80365 4.03473,0.80365 0,0 4.03856,0.80441 4.03856,0.80441 0,0 0.0516,-0.69841 0.0516,-0.69841 0,0 0.0515,-0.69785 0.0515,-0.69785 0,0 0.90946,0.27224 0.90946,0.27224 0,0 0.90976,0.27232 0.90976,0.27232 0,0 0.0565,-0.77571 0.0565,-0.77571 0,0 0.0565,-0.77502 0.0565,-0.77502 0,0 2.02993,0.54175 2.02993,0.54175 0,0 2.03121,0.54209 2.03121,0.54209 0,0 0.25513,0.80483 0.25513,0.80483 0,0 0.25537,0.80559 0.25537,0.80559 0,0 1.81047,0.60214 1.81047,0.60214 0,0 1.81172,0.60256 1.81172,0.60256 0,0 -0.16961,0.28332 -0.16961,0.28332 0,0 -0.16968,0.28341 -0.16968,0.28341 0,0 -2.32775,-0.51507 -2.32775,-0.51507 0,0 -2.32637,-0.51477 -2.32637,-0.51477 0,0 -0.47385,0.25983 -0.47385,0.25983 0,0 -0.474,0.25991 -0.474,0.25991 0,0 -2.51083,-0.70857 -2.51083,-0.70857 0,0 -2.50878,-0.70798 -2.50878,-0.70798 0,0 -1.68085,0.25743 -1.68085,0.25743 0,0 -1.68135,0.25751 -1.68135,0.25751 0,0 1.3034,0.61421 1.3034,0.61421 0,0 1.30434,0.61466 1.30434,0.61466 0,0 -1.61372,-10e-4 -1.61372,-10e-4 0,0 0,0 0,0 m 20.64751,0.0145 c 0,0 -1.12006,-7.8e-4 -1.12006,-7.8e-4 0,0 -1.90047,-0.63146 -1.90047,-0.63146 0,0 -1.89901,-0.631 -1.89901,-0.631 0,0 -0.48529,-1.01631 -0.48529,-1.01631 0,0 -0.48464,-1.01511 -0.48464,-1.01511 0,0 1.23479,8.7e-4 1.23479,8.7e-4 0,0 1.23471,8.6e-4 1.23471,8.6e-4 0,0 0.45324,0.32881 0.45324,0.32881 0.24935,0.1809 0.32108,0.55072 0.15931,0.82188 0,0 -0.29427,0.49323 -0.29427,0.49323 0,0 1.65574,0.49488 1.65574,0.49488 0.91106,0.27231 1.86124,0.64357 2.1113,0.82498 0,0 0.4548,0.32994 0.4548,0.32994 0,0 -1.12015,-7.9e-4 -1.12015,-7.9e-4 0,0 0,0 0,0 m 6.52001,0.005 c 0,0 -1.82217,-0.001 -1.82217,-0.001 0,0 -1.6586,-0.49555 -1.6586,-0.49555 -0.91183,-0.27243 -2.06678,-0.79187 -2.56664,-1.15425 -0.49965,-0.36223 -0.77625,-0.88031 -0.61491,-1.15135 0,0 0.29322,-0.49257 0.29322,-0.49257 0,0 1.70428,10e-4 1.70428,10e-4 0,0 1.70427,10e-4 1.70427,10e-4 0,0 1.71351,0.51109 1.71351,0.51109 0,0 1.7146,0.51138 1.7146,0.51138 0,0 -0.0878,-0.53532 -0.0878,-0.53532 0,0 -0.0877,-0.53499 -0.0877,-0.53499 0,0 4.15636,0.13061 4.15636,0.13061 0,0 4.15705,0.13064 4.15705,0.13064 0,0 2.11148,1.33705 2.11148,1.33705 0,0 2.11467,1.33913 2.11467,1.33913 0,0 -0.76958,-5.4e-4 -0.76958,-5.4e-4 0,0 -0.76958,-5.4e-4 -0.76958,-5.4e-4 0,0 -1.82979,-0.92756 -1.82979,-0.92756 0,0 -1.82783,-0.92658 -1.82783,-0.92658 0,0 0.54055,0.92567 0.54055,0.92567 0,0 0.54104,0.92667 0.54104,0.92667 0,0 -0.83908,-5.9e-4 -0.83908,-5.9e-4 0,0 -0.83909,-5.9e-4 -0.83909,-5.9e-4 0,0 -1.14231,-0.82421 -1.14231,-0.82421 0,0 -1.14122,-0.82343 -1.14122,-0.82343 0,0 -0.81214,-5.7e-4 -0.81214,-5.7e-4 0,0 -0.81214,-5.7e-4 -0.81214,-5.7e-4 0,0 1.1789,0.85119 1.1789,0.85119 0,0 1.18005,0.85202 1.18005,0.85202 0,0 -1.9044,-0.25178 -1.9044,-0.25178 0,0 -1.90394,-0.25171 -1.90394,-0.25171 0,0 0.0705,0.4286 0.0705,0.4286 0,0 0.0706,0.42881 0.0706,0.42881 0,0 -1.82218,-10e-4 -1.82218,-10e-4 0,0 0,0 0,0 m -1.823,-1.2367 c 0,0 1.2188,8.6e-4 1.2188,8.6e-4 0,0 -0.5692,-0.41181 -0.5692,-0.41181 0,0 -0.56893,-0.41162 -0.56893,-0.41162 0,0 -1.21821,-8.5e-4 -1.21821,-8.5e-4 0,0 -1.21821,-8.6e-4 -1.21821,-8.6e-4 0,0 0.56834,0.41162 0.56834,0.41162 0,0 0.56862,0.41181 0.56862,0.41181 0,0 1.21879,8.5e-4 1.21879,8.5e-4 0,0 0,0 0,0 m -127.58848,-9.16693 c -1.24228,-0.04 -3.86654,-0.14328 -5.83145,-0.2295 0,0 -3.57214,-0.15674 -3.57214,-0.15674 0,0 -4.47832,-2.99538 -4.47832,-2.99538 0,0 -4.46273,-2.98496 -4.46273,-2.98496 0,0 -0.0344,-0.43732 -0.0344,-0.43732 0,0 -0.0343,-0.43709 -0.0343,-0.43709 0,0 5.82842,0.004 5.82842,0.004 0,0 5.82839,0.004 5.82839,0.004 0,0 1.60468,0.48581 1.60468,0.48581 0,0 1.60559,0.48608 1.60559,0.48608 0,0 3.32473,2.5239 3.32473,2.5239 0,0 3.33455,2.53135 3.33455,2.53135 0,0 -0.42692,0.63893 -0.42692,0.63893 0,0 -0.42732,0.63941 -0.42732,0.63941 0,0 -2.25878,-0.0727 -2.25878,-0.0727 0,0 0,0 0,0 m 7.99175,-1.95701 c 0,0 -1.87702,-0.001 -1.87702,-0.001 0,0 -2.22458,-1.07293 -2.22458,-1.07293 -1.22236,-0.58954 -2.17605,-1.1399 -2.12012,-1.22339 0.0559,-0.0835 3.48147,-0.17342 7.61218,-0.19988 4.13057,-0.0265 8.90558,-0.0207 10.61148,0.0129 0,0 3.10173,0.0611 3.10173,0.0611 0,0 0.9722,0.73021 0.9722,0.73021 0,0 0.97303,0.73083 0.97303,0.73083 0,0 -0.31943,0.48689 -0.31943,0.48689 0,0 -0.31961,0.48716 -0.31961,0.48716 0,0 -1.6955,-0.001 -1.6955,-0.001 0,0 -1.6955,-0.001 -1.6955,-0.001 0,0 -1.61658,-0.48853 -1.61658,-0.48853 0,0 -1.61567,-0.48825 -1.61567,-0.48825 0,0 -0.3215,0.48689 -0.3215,0.48689 0,0 -0.32168,0.48716 -0.32168,0.48716 0,0 -1.69551,-0.001 -1.69551,-0.001 0,0 -1.69551,-0.001 -1.69551,-0.001 0,0 -1.61452,-0.48853 -1.61452,-0.48853 0,0 -1.61361,-0.48825 -1.61361,-0.48825 0,0 -0.32357,0.48689 -0.32357,0.48689 0,0 -0.32375,0.48716 -0.32375,0.48716 0,0 -1.87694,-0.001 -1.87694,-0.001 0,0 -2e-5,-2e-5 -2e-5,-2e-5 m 26.55036,-0.12928 c 0,0 -4.26401,0.11717 -4.26401,0.11717 0,0 -2.2106,-1.05898 -2.2106,-1.05898 -1.21474,-0.58189 -2.17157,-1.11308 -2.1272,-1.18077 0.0445,-0.0677 2.71763,-0.17725 5.94014,-0.24348 0,0 5.85852,-0.12038 5.85852,-0.12038 0,0 0.12711,-0.60185 0.12711,-0.60185 0,0 0.12702,-0.60143 0.12702,-0.60143 0,0 2.6599,0.75256 2.6599,0.75256 0,0 2.66222,0.75322 2.66222,0.75322 0,0 1.56675,-0.23684 1.56675,-0.23684 0,0 1.56631,-0.23678 1.56631,-0.23678 0,0 1.76404,1.31124 1.76404,1.31124 0,0 1.76674,1.31325 1.76674,1.31325 0,0 -4.01655,-0.008 -4.01655,-0.008 0,0 -4.01645,-0.008 -4.01645,-0.008 0,0 -1.05184,-0.52525 -1.05184,-0.52525 0,0 -1.0512,-0.52493 -1.0512,-0.52493 0,0 -0.51862,0.49133 -0.51862,0.49133 0,0 -0.51893,0.49161 -0.51893,0.49161 0,0 -4.2634,0.11715 -4.2634,0.11715 0,0 5e-5,3e-5 5e-5,3e-5 m 21.6927,-0.0646 c 0,0 -2.13886,0.26246 -2.13886,0.26246 0,0 -1.98263,-0.66269 -1.98263,-0.66269 0,0 -1.98104,-0.66218 -1.98104,-0.66218 0,0 -0.0628,-0.6748 -0.0628,-0.6748 0,0 -0.0627,-0.67427 -0.0627,-0.67427 0,0 3.69546,-0.0484 3.69546,-0.0484 0,0 3.69516,-0.0484 3.69516,-0.0484 0,0 0.64829,0.86095 0.64829,0.86095 0.35686,0.47389 0.57663,0.97949 0.48821,1.12333 -0.0885,0.14387 -1.12292,0.37966 -2.29907,0.52398 0,0 0,0 0,0 m 8.07155,0.23353 c -0.27781,-2e-4 -1.2382,-0.22023 -2.13388,-0.48889 0,0 -1.6278,-0.48825 -1.6278,-0.48825 0,0 -0.95117,-0.70348 -0.95117,-0.70348 0,0 -0.9504,-0.70291 -0.9504,-0.70291 0,0 1.22467,-0.24823 1.22467,-0.24823 0,0 1.22439,-0.24815 1.22439,-0.24815 0,0 2.33253,0.51511 2.33253,0.51511 0,0 2.33392,0.51542 2.33392,0.51542 0,0 -0.47333,0.92437 -0.47333,0.92437 -0.26048,0.50883 -0.70112,0.9252 -0.97893,0.92501 0,0 0,0 0,0 m 10.92091,-0.0181 c -0.50588,-0.0145 -1.89876,-0.183 -3.09503,-0.37436 0,0 -2.17434,-0.34782 -2.17434,-0.34782 0,0 -1.2368,-0.58382 -1.2368,-0.58382 0,0 -1.23595,-0.58342 -1.23595,-0.58342 0,0 0.66703,-0.69044 0.66703,-0.69044 0,0 0.66642,-0.68987 0.66642,-0.68987 0,0 1.41149,0.12567 1.41149,0.12567 0,0 1.4117,0.12571 1.4117,0.12571 0,0 2.2507,1.52102 2.2507,1.52102 0,0 2.25469,1.52373 2.25469,1.52373 0,0 -0.91992,-0.0264 -0.91992,-0.0264 0,0 10e-6,1e-5 10e-6,1e-5 m 6.81666,-0.002 c -0.26828,-0.0178 -1.06774,-0.12502 -1.77647,-0.23819 0,0 -1.28836,-0.20574 -1.28836,-0.20574 0,0 -0.95018,-0.69742 -0.95018,-0.69742 0,0 -0.94942,-0.69685 -0.94942,-0.69685 0,0 0.30428,-0.4861 0.30428,-0.4861 0.16728,-0.26724 0.52173,-0.48567 0.78771,-0.48549 0,0 0.48361,3.4e-4 0.48361,3.4e-4 0,0 1.93672,1.41976 1.93672,1.41976 1.06657,0.78187 1.72042,1.40752 1.45211,1.38969 0,0 0,0 0,0 m 6.80918,-0.23358 c 0,0 -2.5239,0.28438 -2.5239,0.28438 0,0 -1.9642,-0.65245 -1.9642,-0.65245 0,0 -1.96272,-0.65195 -1.96272,-0.65195 0,0 -0.0744,-0.66484 -0.0744,-0.66484 0,0 -0.0744,-0.66432 -0.0744,-0.66432 0,0 5.35729,-0.11219 5.35729,-0.11219 0,0 5.35647,-0.11217 5.35647,-0.11217 0,0 1.34556,0.51113 1.34556,0.51113 0.74042,0.28125 1.74881,0.80039 2.24075,1.15369 0,0 0.89473,0.64275 0.89473,0.64275 0,0 -3.03621,-0.009 -3.03621,-0.009 -1.67018,-0.005 -4.17147,0.11877 -5.55924,0.27513 0,0 2.6e-4,1e-5 2.6e-4,1e-5 m 39.45416,-0.1079 c 0,0 -2.4214,-0.002 -2.4214,-0.002 0,0 -1.69338,-1.21852 -1.69338,-1.21852 0,0 -1.69098,-1.21679 -1.69098,-1.21679 0,0 2.41796,0.002 2.41796,0.002 0,0 2.41796,0.002 2.41796,0.002 0,0 1.69441,1.21679 1.69441,1.21679 0,0 1.69682,1.21853 1.69682,1.21853 0,0 -2.42139,-0.002 -2.42139,-0.002 0,0 0,0 0,0"
           id="path4066"
           inkscape:connector-curvature="0" />
        <path
           style="fill:#757575"
           d="m 113.44308,664.86769 c 0,0 -619.41617,-0.35184 -619.41617,-0.35184 0,0 -2.81239,-0.98153 -2.81239,-0.98153 0,0 -2.80969,-0.98063 -2.80969,-0.98063 0,0 -295.41997,-233.6875 -295.41997,-233.6875 0,0 -236.85186,-187.35811 -236.85186,-187.35811 0,0 0.4633,-0.62836 0.4633,-0.62836 0,0 0.4631,-0.62788 0.4631,-0.62788 0,0 495.89958,0.35182 495.89958,0.35182 0,0 495.735483,0.35171 495.735483,0.35171 0,0 2.419978,0.62972 2.419978,0.62972 0,0 2.421684,0.63019 2.421684,0.63019 0,0 346.472255,187.3667 346.472255,187.3667 0,0 432.11138,233.67898 432.11138,233.67898 0,0 0.24169,0.97876 0.24169,0.97876 0,0 0.24181,0.97967 0.24181,0.97967 0,0 -619.16018,-0.3517 -619.16018,-0.3517 0,0 0,0 0,0 m -3.70771,-2.64925 c 0,0 616.32952,0.19464 616.32952,0.19464 0,0 -411.40681,-222.85816 -411.40681,-222.85816 0,0 -333.259844,-180.52616 -333.259844,-180.52616 0,0 -1.930051,-0.55364 -1.930051,-0.55364 0,0 -1.928812,-0.55327 -1.928812,-0.55327 0,0 -383.739583,-0.27008 -383.739583,-0.27008 0,0 -383.83781,-0.27015 -383.83781,-0.27015 0,0 -2.2898,-0.71785 -2.2898,-0.71785 0,0 -2.2879,-0.71724 -2.2879,-0.71724 0,0 -7.3239,-3.45389 -7.3239,-3.45389 0,0 -7.29452,-3.44003 -7.29452,-3.44003 0,0 -2.65991,-0.70801 -2.65991,-0.70801 0,0 -2.65772,-0.70742 -2.65772,-0.70742 0,0 -73.42798,-0.0519 -73.42798,-0.0519 0,0 -73.43157,-0.0519 -73.43157,-0.0519 0,0 -0.25674,0.98591 -0.25674,0.98591 0,0 -0.25702,0.98705 -0.25702,0.98705 0,0 1.91006,3.15991 1.91006,3.15991 0,0 1.91722,3.17161 1.91722,3.17161 0,0 -0.32562,0.71223 -0.32562,0.71223 0,0 -0.32581,0.71283 -0.32581,0.71283 0,0 -30.04119,-0.0211 -30.04119,-0.0211 0,0 -30.04178,-0.0211 -30.04178,-0.0211 0,0 -0.3502,0.48906 -0.3502,0.48906 0,0 -0.3505,0.48934 -0.3505,0.48934 0,0 228.34468,180.36022 228.34468,180.36022 0,0 281.86346,222.63258 281.86346,222.63258 0,0 1.19283,0.41588 1.19283,0.41588 0,0 1.1932,0.41604 1.1932,0.41604 0,0 616.6741,0.19473 616.6741,0.19473 0,0 0,0 0,0 M -19.803131,267.67788 c 0,0 -3.559292,0.12161 -3.559292,0.12161 0,0 -1.332792,-0.437 -1.332792,-0.437 0,0 -1.332128,-0.43679 -1.332128,-0.43679 0,0 0.761473,-0.22986 0.761473,-0.22986 0.418673,-0.1264 2.278171,-0.17009 4.132379,-0.0971 0,0 3.371782,0.13272 3.371782,0.13272 0,0 0.758494,0.41233 0.758494,0.41233 0,0 0.758855,0.41252 0.758855,0.41252 0,0 -3.558771,0.12159 -3.558771,0.12159 0,0 0,0 0,0 M -996.189,266.42167 c 0,0 -0.15948,0.22814 -0.15948,0.22814 0,0 -1.58341,-0.48865 -1.58341,-0.48865 0,0 -1.58242,-0.48837 -1.58242,-0.48837 0,0 -0.94309,-0.74133 -0.94309,-0.74133 0,0 -0.9423,-0.74068 -0.9423,-0.74068 0,0 1.82139,-0.003 1.82139,-0.003 1.00176,-0.002 3.04538,-0.117 4.54122,-0.25601 0,0 2.71907,-0.2527 2.71907,-0.2527 0,0 0.56394,0.44133 0.56394,0.44133 0,0 0.56422,0.44156 0.56422,0.44156 0,0 -3.29047,0.12412 -3.29047,0.12412 0,0 -3.29097,0.12414 -3.29097,0.12414 0,0 0.87033,0.69154 0.87033,0.69154 0.47666,0.38058 0.7994,0.79471 0.71174,0.92016 0,0 2.3e-4,0 2.3e-4,0 m 125.20455,-0.90573 c -0.19704,-1.4e-4 -0.80101,-0.17294 -1.3419,-0.38394 0,0 -0.98312,-0.38352 -0.98312,-0.38352 0,0 0.47744,-0.25788 0.47744,-0.25788 0,0 0.4773,-0.2578 0.4773,-0.2578 0,0 0.86399,0.64145 0.86399,0.64145 0.47547,0.35301 0.70342,0.64183 0.50629,0.64169 0,0 0,0 0,0 m 31.57398,-0.0893 c 0,0 -0.15126,0.24852 -0.15126,0.24852 0,0 -1.013,-0.78921 -1.013,-0.78921 0,0 -1.01208,-0.7885 -1.01208,-0.7885 0,0 1.16341,0.5402 1.16341,0.5402 0,0 1.16414,0.54054 1.16414,0.54054 0,0 -0.15113,0.24845 -0.15113,0.24845 0,0 -8e-5,0 -8e-5,0 m -68.32726,-0.34789 c 0,0 -0.81238,-5.7e-4 -0.81238,-5.7e-4 0,0 -0.5777,-0.4359 -0.5777,-0.4359 0,0 -0.5774,-0.43567 -0.5774,-0.43567 0,0 1.14903,0.2548 1.14903,0.2548 0.63211,0.14017 1.25768,0.33655 1.39008,0.43638 0.13241,0.0998 -0.12482,0.18128 -0.57163,0.18096 0,0 0,0 0,0 m 8.93623,0.006 c 0,0 -0.81239,-5.7e-4 -0.81239,-5.7e-4 0,0 -0.57995,-0.4359 -0.57995,-0.4359 0,0 -0.57965,-0.43568 -0.57965,-0.43568 0,0 1.15034,0.2548 1.15034,0.2548 0.63283,0.14018 1.25941,0.33655 1.39233,0.43638 0.13293,0.0998 -0.12387,0.18128 -0.57068,0.18097 0,0 0,0 0,0 m 8.93617,0.006 c 0,0 -0.81238,-5.7e-4 -0.81238,-5.7e-4 0,0 -0.5822,-0.4359 -0.5822,-0.4359 0,0 -0.58191,-0.43568 -0.58191,-0.43568 0,0 1.15165,0.2548 1.15165,0.2548 0.63355,0.14017 1.26114,0.33655 1.39457,0.43638 0.13345,0.0998 -0.12293,0.18128 -0.56973,0.18097 0,0 0,0 0,0 m 12.1856,0.009 c 0,0 -0.81237,-5.7e-4 -0.81237,-5.7e-4 0,0 -0.58528,-0.4359 -0.58528,-0.4359 0,0 -0.58498,-0.43568 -0.58498,-0.43568 0,0 1.15343,0.2548 1.15343,0.2548 0.63454,0.14018 1.26352,0.33655 1.39765,0.43638 0.13415,0.0998 -0.12165,0.18128 -0.56845,0.18097 0,0 0,0 0,0 m 854.089904,0.51711 c 0,0 -3.555325,0.12132 -3.555325,0.12132 0,0 -1.330251,-0.43597 -1.330251,-0.43597 0,0 -1.329587,-0.43575 -1.329587,-0.43575 0,0 0.76107,-0.22931 0.76107,-0.22931 0.418453,-0.1261 2.275836,-0.16968 4.127681,-0.0969 0,0 3.367483,0.1324 3.367483,0.1324 0,0 0.756687,0.41134 0.756687,0.41134 0,0 0.757048,0.41154 0.757048,0.41154 0,0 -3.554806,0.1213 -3.554806,0.1213 0,0 0,0 0,0 m -3.777677,-2.05604 c 0,0 -3.551368,0.12102 -3.551368,0.12102 0,0 -1.327717,-0.43493 -1.327717,-0.43493 0,0 -1.327056,-0.43471 -1.327056,-0.43471 0,0 0.760669,-0.22877 0.760669,-0.22877 0.418231,-0.12579 2.273504,-0.16927 4.122991,-0.0966 0,0 3.363196,0.1321 3.363196,0.1321 0,0 0.754888,0.41036 0.754888,0.41036 0,0 0.755246,0.41057 0.755246,0.41057 0,0 -3.550849,0.121 -3.550849,0.121 0,0 0,0 0,0 m -914.670887,-7.91521 c 0,0 -5.52716,-0.004 -5.52716,-0.004 0,0 -3.97441,-2.61113 -3.97441,-2.61113 0,0 -3.96233,-2.60321 -3.96233,-2.60321 0,0 -0.0346,-0.43635 -0.0346,-0.43635 0,0 -0.0346,-0.43614 -0.0346,-0.43614 0,0 5.54075,0.004 5.54075,0.004 0,0 5.54074,0.004 5.54074,0.004 0,0 1.11173,0.43689 1.11173,0.43689 0,0 1.11229,0.43712 1.11229,0.43712 0,0 2.87301,2.60242 2.87301,2.60242 0,0 2.88177,2.61036 2.88177,2.61036 0,0 -5.52715,-0.004 -5.52715,-0.004 0,0 0,0 0,0 m 130.72275,-2.34548 c -0.44372,-3.1e-4 -1.06085,-0.18328 -1.37133,-0.40655 -0.3104,-0.22321 -0.20144,-0.40553 0.24206,-0.40522 0.44351,3.1e-4 1.06045,0.18315 1.37106,0.40636 0.31069,0.22327 0.20192,0.40573 -0.24179,0.40541 0,0 0,0 0,0 m -214.586,-7.42306 c 0,0 1.2051,8.6e-4 1.2051,8.6e-4 0,0 -0.5121,-0.40254 -0.5121,-0.40254 0,0 -0.5118,-0.40235 -0.5118,-0.40235 0,0 -1.2046,-8.5e-4 -1.2046,-8.5e-4 0,0 -1.2046,-8.5e-4 -1.2046,-8.5e-4 0,0 0.5113,0.40235 0.5113,0.40235 0,0 0.5115,0.40253 0.5115,0.40253 0,0 1.2052,8.5e-4 1.2052,8.5e-4 0,0 0,0 0,0"
           id="path4064"
           inkscape:connector-curvature="0" />
        <path
           style="fill:#4c4c4c"
           d="m 113.44308,664.86769 c 0,0 -619.41617,-0.35184 -619.41617,-0.35184 0,0 -2.81239,-0.98153 -2.81239,-0.98153 0,0 -2.80969,-0.98063 -2.80969,-0.98063 0,0 -295.48079,-233.84604 -295.48079,-233.84604 0,0 -236.86484,-187.45687 -236.86484,-187.45687 0,0 3.0847,2.00503 3.0847,2.00503 0,0 3.0919,2.00975 3.0919,2.00975 0,0 -2.017,-1.69405 -2.017,-1.69405 0,0 -2.0129,-1.69068 -2.0129,-1.69068 0,0 1.027,-0.41429 1.027,-0.41429 0,0 1.0264,-0.41409 1.0264,-0.41409 0,0 495.61217,0.45212 495.61217,0.45212 0,0 495.506946,0.45202 495.506946,0.45202 0,0 -1.154251,-0.30042 -1.154251,-0.30042 0,0 -1.153837,-0.30031 -1.153837,-0.30031 0,0 -496.083958,-0.45246 -496.083958,-0.45246 0,0 -496.18947,-0.45256 -496.18947,-0.45256 0,0 496.05996,0.25232 496.05996,0.25232 0,0 495.837603,0.25221 495.837603,0.25221 0,0 2.419978,0.62972 2.419978,0.62972 0,0 2.421684,0.63019 2.421684,0.63019 0,0 346.472255,187.3667 346.472255,187.3667 0,0 432.11138,233.67898 432.11138,233.67898 0,0 0.24169,0.97876 0.24169,0.97876 0,0 0.24181,0.97967 0.24181,0.97967 0,0 -619.16018,-0.3517 -619.16018,-0.3517 0,0 0,0 0,0 m -2.23291,-2.07541 c 0,0 617.00354,0.24418 617.00354,0.24418 0,0 -412.22322,-223.24343 -412.22322,-223.24343 0,0 -333.819504,-180.78319 -333.819504,-180.78319 0,0 -2.719821,-0.74831 -2.719821,-0.74831 0,0 -2.717542,-0.74766 -2.717542,-0.74766 0,0 -383.648543,-0.27006 -383.648543,-0.27006 0,0 -383.74688,-0.27014 -383.74688,-0.27014 0,0 -1.58776,-0.52197 -1.58776,-0.52197 -0.87292,-0.28695 -4.96863,-2.11998 -9.09349,-4.06946 0,0 -7.4757,-3.53319 -7.4757,-3.53319 0,0 -3.16844,-0.80798 -3.16844,-0.80798 0,0 -3.16538,-0.80722 -3.16538,-0.80722 0,0 -73.10959,-0.0517 -73.10959,-0.0517 0,0 -73.11308,-0.0517 -73.11308,-0.0517 0,0 -0.73744,1.10798 -0.73744,1.10798 0,0 -0.7384,1.10943 -0.7384,1.10943 0,0 1.96512,3.23855 1.96512,3.23855 1.08399,1.78643 1.90192,3.47973 1.81548,3.75957 0,0 -0.15725,0.50904 -0.15725,0.50904 0,0 -29.95628,-0.0211 -29.95628,-0.0211 0,0 -29.95689,-0.0211 -29.95689,-0.0211 0,0 -0.6237,0.67415 -0.6237,0.67415 0,0 -0.624,0.67467 -0.624,0.67467 0,0 228.64609,180.66546 228.64609,180.66546 0,0 282.33826,223.09046 282.33826,223.09046 0,0 1.64699,0.31516 1.64699,0.31516 0,0 1.64748,0.31525 1.64748,0.31525 0,0 617.31995,0.2443 617.31995,0.2443 0,0 0,0 0,0 M -944.98259,253.12168 c 0,0 -4.71832,0.11526 -4.71832,0.11526 0,0 -0.94909,-0.28826 -0.94909,-0.28826 -0.52195,-0.1585 -1.75679,-0.90501 -2.74347,-1.65833 0,0 -1.79175,-1.36799 -1.79175,-1.36799 0,0 5.5927,0.12347 5.5927,0.12347 0,0 5.59348,0.12347 5.59348,0.12347 0,0 1.86547,1.4174 1.86547,1.4174 0,0 1.86856,1.41975 1.86856,1.41975 0,0 -4.71758,0.11523 -4.71758,0.11523 0,0 0,0 0,0 m 160.91845,1.41563 c 3.26129,0.002 5.80595,-0.0836 5.65473,-0.19089 -0.15119,-0.10728 -1.90661,-0.93582 -3.8991,-1.84035 0,0 -3.61718,-1.64217 -3.61718,-1.64217 0,0 -2.01432,-0.39404 -2.01432,-0.39404 0,0 -2.0134,-0.39387 -2.0134,-0.39387 0,0 -4.83667,-0.003 -4.83667,-0.003 0,0 -4.83677,-0.003 -4.83677,-0.003 0,0 0.0638,0.37398 0.0638,0.37398 0,0 0.0638,0.37416 0.0638,0.37416 0,0 2.57468,1.14526 2.57468,1.14526 1.41751,0.63055 3.55673,1.46694 4.75343,1.85839 0,0 2.17726,0.71219 2.17726,0.71219 0,0 5.9297,0.004 5.9297,0.004 0,0 0,0 0,0 m -240.55682,-7.65299 c 0,0 2.5944,0.002 2.5944,0.002 0,0 -1.8201,-1.42983 -1.8201,-1.42983 0,0 -1.8171,-1.42744 -1.8171,-1.42744 0,0 -2.5901,-0.002 -2.5901,-0.002 0,0 -2.5902,-0.002 -2.5902,-0.002 0,0 1.8128,1.42744 1.8128,1.42744 0,0 1.8158,1.42983 1.8158,1.42983 0,0 2.5945,0.002 2.5945,0.002 0,0 0,0 0,0 m 21.7351,0.13741 c 0,0 3.18586,-0.11979 3.18586,-0.11979 0,0 -0.77726,-0.60444 -0.77726,-0.60444 0,0 -0.7768,-0.60402 -0.7768,-0.60402 0,0 -3.2829,-0.1303 -3.2829,-0.1303 0,0 -3.2824,-0.13027 -3.2824,-0.13027 0,0 -0.2817,0.39434 -0.2817,0.39434 0,0 -0.2819,0.39452 -0.2819,0.39452 0,0 1.155,0.45976 1.155,0.45976 0,0 1.1557,0.46001 1.1557,0.46001 0,0 3.1864,-0.11981 3.1864,-0.11981 0,0 0,0 0,0 m 20.77064,0.0167 c 0,0 3.20948,-0.12175 3.20948,-0.12175 0,0 -0.91027,-1.18403 -0.91027,-1.18403 0,0 -0.90902,-1.18239 -0.90902,-1.18239 0,0 -1.55588,-0.52691 -1.55588,-0.52691 0,0 -1.55492,-0.52658 -1.55492,-0.52658 0,0 -3.01264,-0.002 -3.01264,-0.002 0,0 -3.01264,-0.002 -3.01264,-0.002 0,0 -0.20077,0.55089 -0.20077,0.55089 0,0 -0.2009,0.55124 -0.2009,0.55124 0,0 1.26149,0.65452 1.26149,0.65452 0.69426,0.3602 1.8053,0.93747 2.46894,1.28282 0,0 1.20721,0.62825 1.20721,0.62825 0,0 3.20994,-0.12178 3.20994,-0.12178 0,0 -2e-5,-1e-5 -2e-5,-1e-5 m -0.56223,-0.32576 c 0,0 -1.41074,-0.001 -1.41074,-0.001 0,0 -1.59533,-0.54131 -1.59533,-0.54131 0,0 -1.59424,-0.54097 -1.59424,-0.54097 0,0 0.18568,-0.26443 0.18568,-0.26443 0.10214,-0.14539 1.14934,-0.26366 2.32716,-0.26283 1.17781,8.4e-4 2.53379,0.1208 3.01338,0.26661 0,0 0.87211,0.26518 0.87211,0.26518 0,0 -0.19354,0.5397 -0.19354,0.5397 0,0 -0.19374,0.54004 -0.19374,0.54004 0,0 -1.41074,-9.9e-4 -1.41074,-9.9e-4 0,0 0,0 0,0"
           id="path4062"
           inkscape:connector-curvature="0" />
        <path
           style="fill:#404040"
           d="m 113.44308,664.86769 c 0,0 -619.41617,-0.35184 -619.41617,-0.35184 0,0 -2.81239,-0.98153 -2.81239,-0.98153 0,0 -2.80969,-0.98063 -2.80969,-0.98063 0,0 -1.25381,-1.04549 -1.25381,-1.04549 0,0 -1.25257,-1.04447 -1.25257,-1.04447 0,0 2.85049,1.39895 2.85049,1.39895 0,0 2.85425,1.40079 2.85425,1.40079 0,0 620.0515,0.35558 620.0515,0.35558 0,0 619.79679,0.35543 619.79679,0.35543 0,0 -414.14254,-223.95251 -414.14254,-223.95251 0,0 -335.17961,-181.25238 -335.17961,-181.25238 0,0 -2.79062,-0.73005 -2.79062,-0.73005 0,0 -2.788257,-0.72943 -2.788257,-0.72943 0,0 -384.326893,-0.47418 -384.326893,-0.47418 0,0 -384.3342,-0.47418 -384.3342,-0.47418 0,0 -5.2421,-2.44297 -5.2421,-2.44297 -2.87679,-1.34067 -7.18356,-3.25406 -9.57211,-4.25282 0,0 -4.3357,-1.81295 -4.3357,-1.81295 0,0 -2.71362,-0.50569 -2.71362,-0.50569 0,0 -2.71203,-0.5054 -2.71203,-0.5054 0,0 -71.62097,-0.0566 -71.62097,-0.0566 0,0 -71.62389,-0.0566 -71.62389,-0.0566 0,0 -1.85965,0.41983 -1.85965,0.41983 0,0 -1.86064,0.42004 -1.86064,0.42004 0,0 0.78252,1.89867 0.78252,1.89867 0.43106,1.04608 1.3804,2.99709 2.1102,4.33632 0,0 1.32973,2.44034 1.32973,2.44034 0,0 -30.16311,0.18236 -30.16311,0.18236 0,0 -30.17079,0.18241 -30.17079,0.18241 0,0 -0.7169,0.77584 -0.7169,0.77584 0,0 -0.7176,0.77654 -0.7176,0.77654 0,0 -8.0292,-6.34666 -8.0292,-6.34666 0,0 -7.9702,-6.29998 -7.9702,-6.29998 0,0 0.4927,-0.25023 0.4927,-0.25023 0,0 0.4925,-0.25016 0.4925,-0.25016 0,0 1.8386,0.91768 1.8386,0.91768 0,0 1.8406,0.91867 1.8406,0.91867 0,0 -0.9106,-1.49541 -0.9106,-1.49541 0,0 -0.9091,-1.4928 -0.9091,-1.4928 0,0 0.6863,4.8e-4 0.6863,4.8e-4 0.3773,2.7e-4 1.4746,0.40748 2.4388,0.90518 0.9648,0.498 2.1482,1.28306 2.6298,1.74455 0,0 0.8761,0.83973 0.8761,0.83973 0,0 3.6986,0.003 3.6986,0.003 0,0 3.6986,0.003 3.6986,0.003 0,0 -1.2596,-0.84 -1.2596,-0.84 -0.6922,-0.46164 -1.5047,-1.24644 -1.8056,-1.74396 0,0 -0.5468,-0.90384 -0.5468,-0.90384 0,0 1.0407,7.4e-4 1.0407,7.4e-4 0,0 1.0408,7.4e-4 1.0408,7.4e-4 0,0 3.1181,1.50849 3.1181,1.50849 0,0 3.1236,1.51116 3.1236,1.51116 0,0 -1.3188,-1.50988 -1.3188,-1.50988 0,0 -1.3166,-1.50722 -1.3166,-1.50722 0,0 0.6239,4.4e-4 0.6239,4.4e-4 0,0 0.6238,4.5e-4 0.6238,4.5e-4 0,0 2.5364,1.50807 2.5364,1.50807 0,0 2.5409,1.51075 2.5409,1.51075 0,0 -0.7361,-1.50947 -0.7361,-1.50947 0,0 -0.7348,-1.5068 -0.7348,-1.5068 0,0 6.2021,0.004 6.2021,0.004 0,0 6.202,0.004 6.202,0.004 0,0 3.13656,1.50849 3.13656,1.50849 0,0 3.14211,1.51116 3.14211,1.51116 0,0 -1.33735,-1.50988 -1.33735,-1.50988 0,0 -1.33498,-1.50722 -1.33498,-1.50722 0,0 0.62384,4.4e-4 0.62384,4.4e-4 0,0 0.62385,4.4e-4 0.62385,4.4e-4 0,0 2.53652,1.50807 2.53652,1.50807 0,0 2.54101,1.51074 2.54101,1.51074 0,0 -0.63321,-1.60989 -0.63321,-1.60989 0,0 -0.63195,-1.60685 -0.63195,-1.60685 0,0 1.63232,1.21672 1.63232,1.21672 0,0 1.63465,1.21846 1.63465,1.21846 0,0 2.40932,0.89644 2.40932,0.89644 0,0 2.41185,0.89738 2.41185,0.89738 0,0 3.12624,0.002 3.12624,0.002 0,0 3.12623,0.002 3.12623,0.002 0,0 0.0879,-0.89561 0.0879,-0.89561 0,0 0.0878,-0.89467 0.0878,-0.89467 0,0 -1.52383,-1.21838 -1.52383,-1.21838 0,0 -1.52166,-1.21664 -1.52166,-1.21664 0,0 3.42064,1.56867 3.42064,1.56867 0,0 3.42694,1.57154 3.42694,1.57154 0,0 -1.10507,-1.5699 -1.10507,-1.5699 0,0 -1.10304,-1.56702 -1.10304,-1.56702 0,0 466.64142,0.43152 466.64142,0.43152 0,0 466.551575,0.43143 466.551575,0.43143 0,0 -2.08961,-1.30504 -2.08961,-1.30504 -1.147947,-0.71691 145.052193,78.24111 344.682685,186.16262 0,0 432.54695,233.83772 432.54695,233.83772 0,0 0.24169,0.97876 0.24169,0.97876 0,0 0.24181,0.97967 0.24181,0.97967 0,0 -619.16019,-0.3517 -619.16019,-0.3517 0,0 -8e-5,-5e-5 -8e-5,-5e-5 M -782.58279,255.35125 c 0,0 7.21057,0.005 7.21057,0.005 0,0 -1.17048,-0.8299 -1.17048,-0.8299 0,0 -1.16934,-0.8291 -1.16934,-0.8291 0,0 -3.83069,-1.58167 -3.83069,-1.58167 0,0 -3.82364,-1.57875 -3.82364,-1.57875 0,0 -2.6927,-0.63493 -2.6927,-0.63493 0,0 -2.6907,-0.63446 -2.6907,-0.63446 0,0 -5.24487,0.002 -5.24487,0.002 0,0 -5.24493,0.002 -5.24493,0.002 0,0 -0.63971,0.36547 -0.63971,0.36547 0,0 -0.64007,0.36564 -0.64007,0.36564 0,0 3.18562,1.59724 3.18562,1.59724 0,0 3.19158,1.60022 3.19158,1.60022 0,0 3.17242,1.07189 3.17242,1.07189 0,0 3.17631,1.07323 3.17631,1.07323 0,0 7.21061,0.005 7.21061,0.005 0,0 2e-5,1e-5 2e-5,1e-5 m -246.52241,-6.65583 c 0.4165,3e-4 0.5404,-0.1705 0.2754,-0.3795 -0.2649,-0.20895 -1.0195,-0.49985 -1.6767,-0.64647 0,0 -1.1947,-0.26652 -1.1947,-0.26652 0,0 -0.1565,0.21495 -0.1565,0.21495 0,0 -0.1565,0.21501 -0.1565,0.21501 0,0 1.0756,0.43089 1.0756,0.43089 0.5918,0.23708 1.4169,0.43135 1.8334,0.43164 0,0 0,0 0,0 m 14.3919,-0.0655 c 0.4569,-0.0968 0.6846,-0.41433 0.5061,-0.70558 0,0 -0.3243,-0.52931 -0.3243,-0.52931 0,0 -0.8302,0.17574 -0.8302,0.17574 -0.4567,0.0967 -0.6846,0.41401 -0.5065,0.70529 0,0 0.3241,0.52985 0.3241,0.52985 0,0 0.8308,-0.17599 0.8308,-0.17599 0,0 0,0 0,0 m 6.5319,0.0803 c 0.4166,3e-4 0.5383,-0.1705 0.2708,-0.3795 -0.2675,-0.20895 -1.0256,-0.49986 -1.6846,-0.64648 0,0 -1.198,-0.26652 -1.198,-0.26652 0,0 -0.1538,0.21496 -0.1538,0.21496 0,0 -0.1538,0.21501 -0.1538,0.21501 0,0 1.0808,0.43089 1.0808,0.43089 0.5947,0.23708 1.4222,0.43135 1.8386,0.43164 0,0 0,0 0,0 m 14.39083,-0.0655 c 0.45569,-0.0968 0.67951,-0.41433 0.49747,-0.70559 0,0 -0.33079,-0.52931 -0.33079,-0.52931 0,0 -0.82801,0.17574 -0.82801,0.17574 -0.4555,0.0967 -0.67957,0.41402 -0.49784,0.7053 0,0 0.33055,0.52985 0.33055,0.52985 0,0 0.82862,-0.17599 0.82862,-0.17599 0,0 0,0 0,0 m 6.53274,0.0803 c 0.41654,2.9e-4 0.53622,-0.17051 0.26611,-0.37951 -0.27004,-0.20895 -1.03165,-0.49985 -1.69245,-0.64647 0,0 -1.20123,-0.26652 -1.20123,-0.26652 0,0 -0.15116,0.21495 -0.15116,0.21495 0,0 -0.1512,0.21501 -0.1512,0.21501 0,0 1.0861,0.43089 1.0861,0.43089 0.59754,0.23709 1.42737,0.43135 1.84383,0.43165 0,0 0,0 0,0 m 14.38969,-0.0655 c 0.4545,-0.0968 0.67441,-0.41433 0.48881,-0.70559 0,0 -0.33727,-0.5293 -0.33727,-0.5293 0,0 -0.82584,0.17573 -0.82584,0.17573 -0.4543,0.0967 -0.67448,0.41402 -0.48918,0.7053 0,0 0.33703,0.52986 0.33703,0.52986 0,0 0.82645,-0.176 0.82645,-0.176 0,0 0,0 0,0 m -29.95906,-1.18098 c 0.5422,0.0145 1.6866,-0.15011 2.5429,-0.36562 0,0 1.5565,-0.39168 1.5565,-0.39168 0,0 -0.73498,-0.57119 -0.73498,-0.57119 0,0 -0.73452,-0.57082 -0.73452,-0.57082 0,0 -1.5847,-0.24517 -1.5847,-0.24517 -0.8714,-0.13481 -2.6093,-0.24582 -3.8621,-0.2467 -1.2527,-8.9e-4 -2.7085,0.10786 -3.235,0.24168 0,0 -0.9575,0.24337 -0.9575,0.24337 0,0 0.7351,0.57382 0.7351,0.57382 0,0 0.7356,0.57422 0.7356,0.57422 0,0 2.2761,0.36585 2.2761,0.36585 1.2522,0.20128 2.7205,0.37781 3.2626,0.39224 0,0 0,0 0,0 m 56.49382,4.91547 c 0,0 -4.86397,-0.003 -4.86397,-0.003 0,0 -1.26106,-0.60865 -1.26106,-0.60865 0,0 -1.26016,-0.60821 -1.26016,-0.60821 0,0 -0.36018,-0.65891 -0.36018,-0.65891 0,0 -0.3599,-0.65839 -0.3599,-0.65839 0,0 3.33291,0.25172 3.33291,0.25172 1.83354,0.13847 4.15205,0.25436 5.15206,0.25751 0,0 1.81819,0.006 1.81819,0.006 0,0 1.33224,1.01242 1.33224,1.01242 0,0 1.33382,1.01363 1.33382,1.01363 0,0 -4.86396,-0.003 -4.86396,-0.003 0,0 10e-6,0 10e-6,0 m -37.47075,-6.55056 c 0,0 -2.00846,-0.001 -2.00846,-0.001 0,0 0.74118,-0.20233 0.74118,-0.20233 0,0 0.741,-0.20229 0.741,-0.20229 0,0 1.26722,0.20371 1.26722,0.20371 0,0 1.26752,0.20375 1.26752,0.20375 0,0 -2.00846,-0.001 -2.00846,-0.001 0,0 0,0 0,0"
           id="path4060"
           inkscape:connector-curvature="0" />
        <path
           style="fill:#3d3d3d"
           d="m 111.98898,663.93364 c 0,0 -619.7871,-0.35224 -619.7871,-0.35224 0,0 310.03471,0.0184 310.03471,0.0184 170.472152,0.0101 449.28649,0.16861 619.61281,0.35219 0,0 309.67038,0.33375 309.67038,0.33375 0,0 -619.5308,-0.3521 -619.5308,-0.3521 0,0 0,0 0,0 m 618.79751,-0.5845 c -0.27462,-1.6e-4 -197.88948,-106.8 -413.75388,-223.59536 0,0 -334.553344,-181.01307 -334.553344,-181.01307 0,0 -3.125473,-0.81759 -3.125473,-0.81759 0,0 -3.12251,-0.81681 -3.12251,-0.81681 0,0 -383.689753,-0.27015 -383.689753,-0.27015 0,0 -383.78795,-0.27022 -383.78795,-0.27022 0,0 -3.06161,-1.3246 -3.06161,-1.3246 -1.68183,-0.72766 -4.53455,-2.05404 -6.33885,-2.94721 -1.80249,-0.89224 -4.89852,-2.29884 -6.88008,-3.12589 0,0 -3.59787,-1.50169 -3.59787,-1.50169 0,0 -2.1341,-0.41789 -2.1341,-0.41789 0,0 -2.13306,-0.4177 -2.13306,-0.4177 0,0 -73.63012,-0.0521 -73.63012,-0.0521 0,0 -73.63374,-0.0521 -73.63374,-0.0521 0,0 -0.64026,0.93119 -0.64026,0.93119 0,0 -0.64089,0.93221 -0.64089,0.93221 0,0 1.42243,2.40025 1.42243,2.40025 0.78412,1.32302 1.61882,3.04652 1.85408,3.82878 0,0 0.42837,1.42413 0.42837,1.42413 0,0 -30.04762,0.18244 -30.04762,0.18244 0,0 -30.05536,0.18249 -30.05536,0.18249 0,0 -0.5929,0.3292 -0.5929,0.3292 0,0 -0.5931,0.32932 -0.5931,0.32932 0,0 -6.3236,-4.99659 -6.3236,-4.99659 0,0 -6.2869,-4.96763 -6.2869,-4.96763 0,0 2.3874,0.8977 2.3874,0.8977 0,0 2.3899,0.89866 2.3899,0.89866 0,0 7.843,0.006 7.843,0.006 0,0 7.8429,0.006 7.8429,0.006 0,0 0.3469,-0.48417 0.3469,-0.48417 0,0 0.3467,-0.48389 0.3467,-0.48389 0,0 -1.4429,-1.12961 -1.4429,-1.12961 0,0 -1.441,-1.12811 -1.441,-1.12811 0,0 0.8035,5.7e-4 0.8035,5.7e-4 0,0 0.8034,5.7e-4 0.8034,5.7e-4 0,0 1.442,1.12811 1.442,1.12811 0,0 1.444,1.12961 1.444,1.12961 0,0 1.5851,0.48525 1.5851,0.48525 0,0 1.5859,0.48554 1.5859,0.48554 0,0 7.7275,0.005 7.7275,0.005 0,0 7.72746,0.005 7.72746,0.005 0,0 0.34096,-0.48417 0.34096,-0.48417 0,0 0.34076,-0.48389 0.34076,-0.48389 0,0 -1.45669,-1.12961 -1.45669,-1.12961 0,0 -1.45477,-1.12812 -1.45477,-1.12812 0,0 0.80342,5.7e-4 0.80342,5.7e-4 0,0 0.80342,5.7e-4 0.80342,5.7e-4 0,0 1.45583,1.12811 1.45583,1.12811 0,0 1.45776,1.12961 1.45776,1.12961 0,0 1.59099,0.48526 1.59099,0.48526 0,0 1.5919,0.48553 1.5919,0.48553 0,0 7.72737,0.005 7.72737,0.005 0,0 7.72734,0.005 7.72734,0.005 0,0 0.33501,-0.48417 0.33501,-0.48417 0,0 0.33483,-0.48389 0.33483,-0.48389 0,0 -1.16512,-0.89502 -1.16512,-0.89502 -0.6403,-0.49186 -1.29334,-1.13535 -1.45151,-1.43014 0,0 -0.2875,-0.53572 -0.2875,-0.53572 0,0 467.09544,0.43178 467.09544,0.43178 0,0 467.005424,0.43169 467.005424,0.43169 0,0 343.634496,185.87928 343.634496,185.87928 222.92271,120.58368 427.37158,231.29588 427.09697,231.29573 0,0 0,0 0,0 M -781.90275,255.75847 c 0,0 7.15549,0.005 7.15549,0.005 0,0 -0.38557,-0.59354 -0.38557,-0.59354 0,0 -0.38522,-0.59312 -0.38522,-0.59312 0,0 -2.99427,-1.44991 -2.99427,-1.44991 0,0 -2.98922,-1.44745 -2.98922,-1.44745 0,0 -3.71433,-1.20619 -3.71433,-1.20619 0,0 -3.70919,-1.20449 -3.70919,-1.20449 0,0 -7.19721,-0.005 -7.19721,-0.005 0,0 -7.19725,-0.005 -7.19725,-0.005 0,0 0.33232,0.52308 0.33232,0.52308 0,0 0.33245,0.52339 0.33245,0.52339 0,0 3.76736,1.79419 3.76736,1.79419 0,0 3.77517,1.79795 3.77517,1.79795 0,0 3.02534,0.92759 3.02534,0.92759 0,0 3.02861,0.92859 3.02861,0.92859 0,0 7.15552,0.005 7.15552,0.005 0,0 0,0 0,0 m -167.43532,-3.37107 c 0,0 -1.80864,0.003 -1.80864,0.003 0,0 -1.3281,-1.01362 -1.3281,-1.01362 0,0 -1.32653,-1.01243 -1.32653,-1.01243 0,0 4.83293,0.003 4.83293,0.003 0,0 4.83292,0.003 4.83292,0.003 0,0 0.99592,0.75684 0.99592,0.75684 0,0 0.9968,0.75751 0.9968,0.75751 0,0 -2.69294,0.24921 -2.69294,0.24921 -1.48146,0.1371 -3.50762,0.25072 -4.50237,0.25247 0,0 10e-6,1e-5 10e-6,1e-5 m -79.27323,-4.49845 c -0.3661,-2.6e-4 -1.0408,-0.15068 -1.4992,-0.33424 0,0 -0.8333,-0.33364 -0.8333,-0.33364 0,0 -0.6537,-0.87575 -0.6537,-0.87575 0,0 -0.6529,-0.87484 -0.6529,-0.87484 0,0 0.972,6.8e-4 0.972,6.8e-4 0,0 0.9721,6.9e-4 0.9721,6.9e-4 0,0 1.1795,1.20793 1.1795,1.20793 0,0 1.1811,1.20964 1.1811,1.20964 0,0 -0.6656,-4.7e-4 -0.6656,-4.7e-4 0,0 0,0 0,0 m 5.2249,0.004 c 0,0 -1.2541,-8.8e-4 -1.2541,-8.8e-4 0,0 -0.016,-0.40971 -0.016,-0.40971 0,0 -0.016,-0.40951 -0.016,-0.40951 0,0 1.0435,0.23252 1.0435,0.23252 0.5741,0.12793 1.1456,0.31266 1.2701,0.41052 0.1245,0.0979 -0.3379,0.17755 -1.0276,0.17706 0,0 0,0 0,0 m 5.722,0.004 c 0,0 -1.0678,-7.6e-4 -1.0678,-7.6e-4 0,0 -1.8955,-1.21014 -1.8955,-1.21014 0,0 -1.8929,-1.20843 -1.8929,-1.20843 0,0 1.3737,9.8e-4 1.3737,9.8e-4 0,0 1.3737,9.7e-4 1.3737,9.7e-4 0,0 1.5729,0.87549 1.5729,0.87549 0,0 1.5746,0.8764 1.5746,0.8764 0,0 0.014,0.33305 0.014,0.33305 0.01,0.18324 -0.4659,0.33285 -1.0532,0.33244 0,0 0,0 0,0 m 15.6415,0.0111 c 0,0 -6.3401,-0.004 -6.3401,-0.004 0,0 -0.9199,-0.36656 -0.9199,-0.36656 0,0 -0.9196,-0.36639 -0.9196,-0.36639 0,0 -0.475,-0.87573 -0.475,-0.87573 0,0 -0.4744,-0.87485 -0.4744,-0.87485 0,0 2.2763,1.04019 2.2763,1.04019 0,0 2.2792,1.04146 2.2792,1.04146 0,0 4.0555,0.003 4.0555,0.003 0,0 4.05538,0.003 4.05538,0.003 0,0 -0.39337,-1.04012 -0.39337,-1.04012 0,0 -0.39297,-1.03886 -0.39297,-1.03886 0,0 1.7732,0.87576 1.7732,0.87576 0,0 1.77494,0.87665 1.77494,0.87665 0,0 0.0204,0.36575 0.0204,0.36575 0,0 0.0205,0.36592 0.0205,0.36592 0,0 -6.34008,-0.004 -6.34008,-0.004 0,0 0,0 0,0 m 15.41657,0.0109 c -0.46364,-3.3e-4 -1.22603,-0.15249 -1.69408,-0.33809 0,0 -0.85085,-0.33737 -0.85085,-0.33737 0,0 -0.81706,-1.17394 -0.81706,-1.17394 0,0 -0.81594,-1.17232 -0.81594,-1.17232 0,0 1.19691,0.87245 1.19691,0.87245 0.65858,0.48024 1.78859,1.1604 2.51061,1.51137 0,0 1.31346,0.63849 1.31346,0.63849 0,0 -0.84297,-5.9e-4 -0.84297,-5.9e-4 0,0 -8e-5,0 -8e-5,0 m 10.99403,0.008 c 0,0 -0.84297,-6e-4 -0.84297,-6e-4 0,0 -0.3408,-0.6378 -0.3408,-0.6378 -0.18729,-0.35059 -0.82025,-1.0304 -1.40625,-1.51058 0,0 -1.06462,-0.87236 -1.06462,-0.87236 0,0 2.22434,1.17332 2.22434,1.17332 0,0 2.2274,1.17493 2.2274,1.17493 0,0 0.0229,0.33678 0.0229,0.33678 0.0127,0.18528 -0.35632,0.33664 -0.81995,0.33631 0,0 -8e-5,0 -8e-5,0 m -8.19183,-2.083 c 0,0 -2.00846,-10e-4 -2.00846,-10e-4 0,0 0.74118,-0.20233 0.74118,-0.20233 0,0 0.741,-0.20229 0.741,-0.20229 0,0 1.26722,0.20371 1.26722,0.20371 0,0 1.26752,0.20375 1.26752,0.20375 0,0 -2.00846,-0.001 -2.00846,-0.001 0,0 0,0 0,0"
           id="path4058"
           inkscape:connector-curvature="0" />
        <path
           style="fill:#383838"
           d="m 111.98898,663.93364 c 0,0 -619.7871,-0.35224 -619.7871,-0.35224 0,0 310.03471,0.0184 310.03471,0.0184 170.472152,0.0101 449.28649,0.16861 619.61281,0.35219 0,0 309.67038,0.33375 309.67038,0.33375 0,0 -619.5308,-0.3521 -619.5308,-0.3521 0,0 0,0 0,0 m 618.79751,-0.5845 c -0.27462,-1.6e-4 -198.05077,-106.88727 -414.07199,-223.76747 0,0 -334.756021,-181.12273 -334.756021,-181.12273 0,0 -2.726277,-0.67648 -2.726277,-0.67648 0,0 -2.724228,-0.67596 -2.724228,-0.67596 0,0 -383.497444,-0.27001 -383.497444,-0.27001 0,0 -383.59562,-0.27008 -383.59562,-0.27008 0,0 -2.40994,-0.91746 -2.40994,-0.91746 -1.32437,-0.50418 -5.36513,-2.3211 -8.9736,-4.03476 0,0 -6.54234,-3.10698 -6.54234,-3.10698 0,0 -2.72232,-0.83802 -2.72232,-0.83802 0,0 -2.71959,-0.83721 -2.71959,-0.83721 0,0 -74.2474,-0.0525 -74.2474,-0.0525 0,0 -74.25101,-0.0525 -74.25101,-0.0525 0,0 -0.97723,0.25033 -0.97723,0.25033 0,0 -0.97752,0.2504 -0.97752,0.2504 0,0 0.44801,1.46267 0.44801,1.46267 0.24671,0.80554 1.23972,2.68078 2.20799,4.16887 0,0 1.76486,2.71224 1.76486,2.71224 0,0 -0.46121,0.42319 -0.46121,0.42319 0,0 -0.46152,0.42341 -0.46152,0.42341 0,0 -30.51971,0.0945 -30.51971,0.0945 0,0 -30.52448,0.0946 -30.52448,0.0946 0,0 -4.7648,-3.96568 -4.7648,-3.96568 0,0 -4.7429,-3.94742 -4.7429,-3.94742 0,0 2.015,0.40498 2.015,0.40498 0,0 2.0159,0.40517 2.0159,0.40517 0,0 6.547,0.005 6.547,0.005 0,0 6.547,0.005 6.547,0.005 0,0 1.0232,-0.41736 1.0232,-0.41736 0,0 1.0227,-0.41717 1.0227,-0.41717 0,0 -1.0133,-0.79332 -1.0133,-0.79332 0,0 -1.0124,-0.79259 -1.0124,-0.79259 0,0 0.804,5.7e-4 0.804,5.7e-4 0,0 0.804,5.7e-4 0.804,5.7e-4 0,0 1.0131,0.79259 1.0131,0.79259 0,0 1.0141,0.79331 1.0141,0.79331 0,0 2.0917,0.41937 2.0917,0.41937 0,0 2.0926,0.41957 2.0926,0.41957 0,0 6.54694,0.005 6.54694,0.005 0,0 6.54693,0.005 6.54693,0.005 0,0 1.01803,-0.41737 1.01803,-0.41737 0,0 1.01759,-0.41717 1.01759,-0.41717 0,0 -1.02303,-0.79332 -1.02303,-0.79332 0,0 -1.02209,-0.79259 -1.02209,-0.79259 0,0 0.80399,5.7e-4 0.80399,5.7e-4 0,0 0.80399,5.7e-4 0.80399,5.7e-4 0,0 1.24084,0.96152 1.24084,0.96152 0,0 1.24225,0.96261 1.24225,0.96261 0,0 2.12576,0.24498 2.12576,0.24498 1.16943,0.13477 5.1186,0.24965 8.77577,0.25527 0,0 6.64937,0.0102 6.64937,0.0102 0,0 0.55837,-0.80717 0.55837,-0.80717 0,0 0.55784,-0.80642 0.55784,-0.80642 0,0 -1.34413,-1.03215 -1.34413,-1.03215 0,0 -1.3425,-1.03091 -1.3425,-1.03091 0,0 1.01682,0.22492 1.01682,0.22492 0,0 1.01702,0.22498 1.01702,0.22498 0,0 466.49789,0.33204 466.49789,0.33204 0,0 466.353721,0.33194 466.353721,0.33194 0,0 343.059769,185.5684 343.059769,185.5684 222.47268,120.34026 426.45487,230.80002 426.18026,230.79986 0,0 2.9e-4,1.6e-4 2.9e-4,1.6e-4 M -781.94371,255.76 c 0,0 7.95359,0.006 7.95359,0.006 0,0 -1.59674,-1.11918 -1.59674,-1.11918 0,0 -1.59467,-1.11773 -1.59467,-1.11773 0,0 -3.86435,-1.67186 -3.86435,-1.67186 0,0 -3.85683,-1.66861 -3.85683,-1.66861 0,0 -2.80652,-0.66157 -2.80652,-0.66157 0,0 -2.80427,-0.66106 -2.80427,-0.66106 0,0 -5.78996,-0.004 -5.78996,-0.004 -3.18447,-0.002 -6.20828,0.10586 -6.7196,0.24026 0,0 -0.92979,0.24441 -0.92979,0.24441 0,0 1.37178,0.9808 1.37178,0.9808 0.75515,0.53993 2.87038,1.65372 4.70158,2.47551 1.83303,0.82258 4.37924,1.82351 5.6571,2.22375 0,0 2.32505,0.72818 2.32505,0.72818 0,0 7.95363,0.006 7.95363,0.006 0,0 0,0 0,0 m -166.68138,-3.44172 c 0,0 -2.45426,0.12528 -2.45426,0.12528 0,0 -1.36182,-1.03937 -1.36182,-1.03937 0,0 -1.36016,-1.0381 -1.36016,-1.0381 0,0 2.87527,0.002 2.87527,0.002 0,0 2.87519,0.002 2.87519,0.002 0,0 0.93937,0.91094 0.93937,0.91094 0,0 0.9403,0.91192 0.9403,0.91192 0,0 -2.45389,0.12526 -2.45389,0.12526 0,0 0,0 0,0 m -80.45421,-4.83123 c 0,0 -0.8042,-5.6e-4 -0.8042,-5.6e-4 0,0 -0.7669,-0.60488 -0.7669,-0.60488 0,0 -0.7664,-0.60444 -0.7664,-0.60444 0,0 0.8036,5.7e-4 0.8036,5.7e-4 0,0 0.8037,5.6e-4 0.8037,5.6e-4 0,0 0.7669,0.60445 0.7669,0.60445 0,0 0.7675,0.60487 0.7675,0.60487 0,0 -0.8042,-5.7e-4 -0.8042,-5.7e-4 0,0 0,0 0,0 m 10.8567,0.008 c 0,0 -1.2063,-8.5e-4 -1.2063,-8.5e-4 0,0 -0.7706,-0.60488 -0.7706,-0.60488 0,0 -0.7701,-0.60444 -0.7701,-0.60444 0,0 1.2054,8.5e-4 1.2054,8.5e-4 0,0 1.2054,8.5e-4 1.2054,8.5e-4 0,0 0.771,0.60445 0.771,0.60445 0,0 0.7715,0.60487 0.7715,0.60487 0,0 -1.2063,-8.5e-4 -1.2063,-8.5e-4 0,0 0,0 0,0 m 10.0271,0.007 c 0,0 -0.7789,-5.5e-4 -0.7789,-5.5e-4 0,0 -0.7744,-0.60487 -0.7744,-0.60487 -0.4256,-0.3325 -0.6316,-0.60435 -0.4579,-0.60423 0.1737,1.2e-4 0.8722,0.27232 1.5525,0.605 0,0 1.2376,0.6052 1.2376,0.6052 0,0 -0.7789,-5.5e-4 -0.7789,-5.5e-4 0,0 0,0 0,0 m 11.3091,0.008 c 0,0 -0.77893,-5.5e-4 -0.77893,-5.5e-4 0,0 -0.31561,-0.60455 -0.31561,-0.60455 -0.17348,-0.33232 -0.17331,-0.60402 4.3e-4,-0.6039 0.17366,1.2e-4 0.666,0.27217 1.09415,0.60467 0,0 0.77889,0.60488 0.77889,0.60488 0,0 -0.77893,-5.5e-4 -0.77893,-5.5e-4 0,0 0,0 0,0 m 8.96229,-0.29588 c 0,0 0.24612,0.50392 0.24612,0.50392 0,0 -1.30296,-1.00812 -1.30296,-1.00812 0,0 -1.30142,-1.00694 -1.30142,-1.00694 0,0 1.05584,0.50361 1.05584,0.50361 0,0 1.05645,0.5039 1.05645,0.5039 0,0 0.24597,0.50363 0.24597,0.50363 0,0 0,0 0,0 m 12.06047,0.009 c 0,0 0.24967,0.50392 0.24967,0.50392 0,0 -1.31006,-1.00812 -1.31006,-1.00812 0,0 -1.30853,-1.00694 -1.30853,-1.00694 0,0 1.05938,0.5036 1.05938,0.5036 0,0 1.06001,0.50391 1.06001,0.50391 0,0 0.24953,0.50363 0.24953,0.50363 0,0 0,0 0,0 m -7.94049,-1.37749 c 0,0 -2.00846,-0.001 -2.00846,-0.001 0,0 0.74118,-0.20233 0.74118,-0.20233 0,0 0.741,-0.20229 0.741,-0.20229 0,0 1.26722,0.20371 1.26722,0.20371 0,0 1.26752,0.20375 1.26752,0.20375 0,0 -2.00846,-0.001 -2.00846,-0.001 0,0 0,0 0,0"
           id="path4056"
           inkscape:connector-curvature="0" />
      </g>
    </g>
  </g>
  <g
     style="display:none"
     inkscape:label="Ebene 2"
     inkscape:groupmode="layer"
     id="g3780"
     transform="translate(0,10.64217)"
     sodipodi:insensitive="true">
    <path
       d="m -3097.1429,-1456.2092 a 85.714287,85.714287 0 1 1 -171.4286,0 85.714287,85.714287 0 1 1 171.4286,0 z"
       sodipodi:ry="85.714287"
       sodipodi:rx="85.714287"
       sodipodi:cy="-1456.2092"
       sodipodi:cx="-3182.8572"
       id="path3796"
       style="fill:#ff0000;fill-rule:evenodd;stroke:#000000;stroke-width:1px;stroke-linecap:butt;stroke-linejoin:miter;stroke-opacity:1"
       sodipodi:type="arc"
       transform="translate(1096,208)" />
    <g
       inkscape:corner7="-0.88577497 : 0.036872771 : 0.22622 : 1"
       inkscape:corner0="2.1419598 : -0.067838744 : 0 : 1"
       inkscape:perspectiveID="#perspective3070-9"
       id="g3798"
       style="fill:none;stroke:none"
       sodipodi:type="inkscape:box3d">
      <path
         d="m 1832.178,872.37008 0,-104.71152 -722.1491,-371.45905 0,85.39374 z"
         inkscape:box3dsidetype="14"
         style="fill:#d7d7ff;fill-rule:evenodd;stroke:none"
         id="path3800"
         sodipodi:type="inkscape:box3dside" />
      <path
         d="m 586.81761,872.37008 1245.36039,0 -722.1491,-390.77683 -1015.60919,0 z"
         inkscape:box3dsidetype="5"
         style="fill:#4d4d9f;fill-rule:evenodd;stroke:none"
         id="path3802"
         sodipodi:type="inkscape:box3dside" />
      <path
         d="m 94.41971,481.59325 1015.60919,0 0,-85.39374 -1015.60919,0 z"
         inkscape:box3dsidetype="11"
         style="fill:#e9e9ff;fill-rule:evenodd;stroke:none"
         id="path3804"
         sodipodi:type="inkscape:box3dside" />
      <path
         d="m 586.81761,872.37008 1245.36039,0 0,-104.71152 -1245.36039,0 z"
         inkscape:box3dsidetype="3"
         style="fill:#8686bf;fill-rule:evenodd;stroke:none"
         id="path3806"
         sodipodi:type="inkscape:box3dside" />
      <path
         d="m 586.81761,767.65856 1245.36039,0 -722.1491,-371.45905 -1015.60919,0 z"
         inkscape:box3dsidetype="13"
         style="fill:#afafde;fill-rule:evenodd;stroke:none"
         id="path3808"
         sodipodi:type="inkscape:box3dside" />
      <path
         d="m 586.81761,872.37008 0,-104.71152 -492.3979,-371.45905 0,85.39374 z"
         inkscape:box3dsidetype="6"
         style="fill:#353564;fill-rule:evenodd;stroke:none"
         id="path3810"
         sodipodi:type="inkscape:box3dside" />
    </g>
  </g>
  <g
     inkscape:groupmode="layer"
     id="layer4"
     inkscape:label="layer1"
     style="display:inline"
     transform="translate(0,10.64217)">
    <g
       id="g7941"
       transform="translate(1096,208)">
      <g
         id="g7709">
        <g
           id="g7039">
          <path
             inkscape:connector-curvature="0"
             style="fill:url(#linearGradient7939);fill-opacity:1"
             d="m -1001.625,188.11218 c 0,0 1015.6875,0.125 1015.6875,0.125 0,0 722.11328,371.4375 722.11328,371.4375 0,0 -1245.29266,-1.58014 -1245.29266,-1.58014 0,0 -492.50812,-369.98236 -492.50812,-369.98236"
             id="rect5487" />
        </g>
      </g>
    </g>
    <path
       style="fill:none;stroke:#000000;stroke-width:1px;stroke-linecap:butt;stroke-linejoin:miter;stroke-opacity:1"
       d="M 586.88312,766.09454 94.375,396.11218 l 1015.6875,0.125 722.1133,371.4375 z"
       id="path7037"
       inkscape:connector-curvature="0" />
  </g>
  <g
     id="g3840"
     inkscape:groupmode="layer"
     inkscape:label="Ebene 3"
     style="display:none"
     transform="translate(0,10.64217)"
     sodipodi:insensitive="true">
    <path
       sodipodi:type="arc"
       style="fill:#ff0000;fill-rule:evenodd;stroke:#000000;stroke-width:1px;stroke-linecap:butt;stroke-linejoin:miter;stroke-opacity:1"
       id="path3856"
       sodipodi:cx="-3182.8572"
       sodipodi:cy="-1456.2092"
       sodipodi:rx="85.714287"
       sodipodi:ry="85.714287"
       d="m -3097.1429,-1456.2092 a 85.714287,85.714287 0 1 1 -171.4286,0 85.714287,85.714287 0 1 1 171.4286,0 z"
       transform="translate(1096,208)" />
    <g
       sodipodi:type="inkscape:box3d"
       style="fill:none;stroke:none"
       id="g3872"
       inkscape:perspectiveID="#perspective3070-9-0"
       inkscape:corner0="2.1419598 : -0.067838744 : 0 : 1"
       inkscape:corner7="-0.88577497 : 0.036872771 : 0.22536709 : 1">
      <path
         sodipodi:type="inkscape:box3dside"
         id="path3874"
         style="fill:#d7d7ff;fill-rule:evenodd;stroke:none"
         inkscape:box3dsidetype="14"
         d="m 1832.1664,767.67767 0,-104.71152 -721.4134,-351.73759 0,85.45318 z" />
      <path
         sodipodi:type="inkscape:box3dside"
         id="path3876"
         style="fill:#4d4d9f;fill-rule:evenodd;stroke:none"
         inkscape:box3dsidetype="5"
         d="m 586.80601,767.67767 1245.36039,0 -721.4134,-370.99593 -1016.316153,0 z" />
      <path
         sodipodi:type="inkscape:box3dside"
         id="path3878"
         style="fill:#e9e9ff;fill-rule:evenodd;stroke:none"
         inkscape:box3dsidetype="11"
         d="m 94.436847,396.68174 1016.316153,0 0,-85.45318 -1016.316153,0 z" />
      <path
         sodipodi:type="inkscape:box3dside"
         id="path3880"
         style="fill:#8686bf;fill-rule:evenodd;stroke:none"
         inkscape:box3dsidetype="3"
         d="m 586.80601,767.67767 1245.36039,0 0,-104.71152 -1245.36039,0 z" />
      <path
         sodipodi:type="inkscape:box3dside"
         id="path3882"
         style="fill:#afafde;fill-rule:evenodd;stroke:none"
         inkscape:box3dsidetype="13"
         d="m 586.80601,662.96615 1245.36039,0 -721.4134,-351.73759 -1016.316153,0 z" />
      <path
         sodipodi:type="inkscape:box3dside"
         id="path3884"
         style="fill:#353564;fill-rule:evenodd;stroke:none"
         inkscape:box3dsidetype="6"
         d="m 586.80601,767.67767 0,-104.71152 -492.369163,-351.73759 0,85.45318 z" />
    </g>
  </g>
  <g
     inkscape:groupmode="layer"
     id="layer5"
     inkscape:label="layer2"
     style="display:inline"
     transform="translate(0,10.64217)">
    <g
       id="g8175"
       transform="translate(1096,208)">
      <path
         style="fill:url(#linearGradient8652);fill-opacity:1"
         d="m -1001.5781,103.22156 c 0,0 1016.332006,0.0156 1016.332006,0.0156 0,0 721.402344,351.75 721.402344,351.75 0,0 -1245.28125,2e-5 -1245.28125,2e-5 0,0 -492.4531,-351.76562 -492.4531,-351.76562"
         id="rect5487-5"
         inkscape:connector-curvature="0" />
    </g>
    <path
       inkscape:connector-curvature="0"
       id="path8170"
       d="M 586.875,662.98718 94.4219,311.22156 l 1016.332,0.0156 721.4024,351.75 z"
       style="fill:none;stroke:#000000;stroke-width:1px;stroke-linecap:butt;stroke-linejoin:miter;stroke-opacity:1" />
  </g>
  <g
     style="display:none"
     inkscape:label="Ebene 4"
     inkscape:groupmode="layer"
     id="g3900"
     transform="translate(0,10.64217)"
     sodipodi:insensitive="true">
    <path
       d="m -3097.1429,-1456.2092 a 85.714287,85.714287 0 1 1 -171.4286,0 85.714287,85.714287 0 1 1 171.4286,0 z"
       sodipodi:ry="85.714287"
       sodipodi:rx="85.714287"
       sodipodi:cy="-1456.2092"
       sodipodi:cx="-3182.8572"
       id="path3916"
       style="fill:#ff0000;fill-rule:evenodd;stroke:#000000;stroke-width:1px;stroke-linecap:butt;stroke-linejoin:miter;stroke-opacity:1"
       sodipodi:type="arc"
       transform="translate(1096,208)" />
    <g
       inkscape:corner7="-0.88577497 : 0.036872771 : 0.22456191 : 1"
       inkscape:corner0="2.1419598 : -0.067838744 : 0 : 1"
       inkscape:perspectiveID="#perspective3070-9-0-0"
       id="g3946"
       style="fill:none;stroke:none"
       sodipodi:type="inkscape:box3d">
      <path
         d="m 1832.1853,662.93747 0,-104.71152 -720.7906,-331.44607 0,85.50937 z"
         inkscape:box3dsidetype="14"
         style="fill:#d7d7ff;fill-rule:evenodd;stroke:none"
         id="path3948"
         sodipodi:type="inkscape:box3dside" />
      <path
         d="m 586.82491,662.93747 1245.36039,0 -720.7906,-350.64822 -1016.984354,0 z"
         inkscape:box3dsidetype="5"
         style="fill:#4d4d9f;fill-rule:evenodd;stroke:none"
         id="path3950"
         sodipodi:type="inkscape:box3dside" />
      <path
         d="m 94.410346,312.28925 1016.984354,0 0,-85.50937 -1016.984354,0 z"
         inkscape:box3dsidetype="11"
         style="fill:#e9e9ff;fill-rule:evenodd;stroke:none"
         id="path3952"
         sodipodi:type="inkscape:box3dside" />
      <path
         d="m 586.82491,662.93747 1245.36039,0 0,-104.71152 -1245.36039,0 z"
         inkscape:box3dsidetype="3"
         style="fill:#8686bf;fill-rule:evenodd;stroke:none"
         id="path3954"
         sodipodi:type="inkscape:box3dside" />
      <path
         d="m 586.82491,558.22595 1245.36039,0 -720.7906,-331.44607 -1016.984354,0 z"
         inkscape:box3dsidetype="13"
         style="fill:#afafde;fill-rule:evenodd;stroke:none"
         id="path3956"
         sodipodi:type="inkscape:box3dside" />
      <path
         d="m 586.82491,662.93747 0,-104.71152 -492.414564,-331.44607 0,85.50937 z"
         inkscape:box3dsidetype="6"
         style="fill:#353564;fill-rule:evenodd;stroke:none"
         id="path3958"
         sodipodi:type="inkscape:box3dside" />
    </g>
  </g>
  <g
     inkscape:label="layer3"
     id="g6983"
     inkscape:groupmode="layer"
     style="display:inline"
     transform="translate(0,10.64217)">
    <g
       id="g8413"
       transform="translate(1096,208)">
      <path
         inkscape:connector-curvature="0"
         id="rect6985"
         d="m -1001.5937,18.799684 c 0,0 1016.996044,-0.0078 1016.996044,-0.0078 0,0 720.778676,331.451946 720.778676,331.451946 0,0 -1245.43102,-0.13164 -1245.43102,-0.13164 0,0 -492.3437,-331.312492 -492.3437,-331.312492"
         style="fill:url(#linearGradient8654);fill-opacity:1" />
    </g>
    <path
       style="fill:none;stroke:#000000;stroke-width:1px;stroke-linecap:butt;stroke-linejoin:miter;stroke-opacity:1"
       d="m 586.75,558.11218 -492.3437,-331.3125 1016.996,-0.008 720.7787,331.45195 z"
       id="path8408"
       inkscape:connector-curvature="0" />
  </g>
  <g
     id="g3960"
     inkscape:groupmode="layer"
     inkscape:label="Ebene 5"
     style="display:none"
     transform="translate(0,10.64217)"
     sodipodi:insensitive="true">
    <path
       sodipodi:type="arc"
       style="fill:#ff0000;fill-rule:evenodd;stroke:#000000;stroke-width:1px;stroke-linecap:butt;stroke-linejoin:miter;stroke-opacity:1"
       id="path3976"
       sodipodi:cx="-3182.8572"
       sodipodi:cy="-1456.2092"
       sodipodi:rx="85.714287"
       sodipodi:ry="85.714287"
       d="m -3097.1429,-1456.2092 a 85.714287,85.714287 0 1 1 -171.4286,0 85.714287,85.714287 0 1 1 171.4286,0 z"
       transform="translate(1096,208)" />
    <g
       sodipodi:type="inkscape:box3d"
       style="fill:none;stroke:none"
       id="g3992"
       inkscape:perspectiveID="#perspective7021"
       inkscape:corner0="2.1419598 : -0.067838744 : 0 : 1"
       inkscape:corner7="-0.88577497 : 0.036872771 : 0.22615907 : 1">
      <path
         sodipodi:type="inkscape:box3dside"
         id="path3994"
         style="fill:#d7d7ff;fill-rule:evenodd;stroke:none"
         inkscape:box3dsidetype="14"
         d="m 1832.2644,559.139 0,-104.71152 -722.6985,-313.87981 0,85.39799 z" />
      <path
         sodipodi:type="inkscape:box3dside"
         id="path3996"
         style="fill:#4d4d9f;fill-rule:evenodd;stroke:none"
         inkscape:box3dsidetype="5"
         d="m 586.90401,559.139 1245.36039,0 -722.6985,-333.19334 -1015.659659,0 z" />
      <path
         sodipodi:type="inkscape:box3dside"
         id="path3998"
         style="fill:#e9e9ff;fill-rule:evenodd;stroke:none"
         inkscape:box3dsidetype="11"
         d="m 93.906241,225.94566 1015.659659,0 0,-85.39799 -1015.659659,0 z" />
      <path
         sodipodi:type="inkscape:box3dside"
         id="path4000"
         style="fill:#8686bf;fill-rule:evenodd;stroke:none"
         inkscape:box3dsidetype="3"
         d="m 586.90401,559.139 1245.36039,0 0,-104.71152 -1245.36039,0 z" />
      <path
         sodipodi:type="inkscape:box3dside"
         id="path4002"
         style="fill:#afafde;fill-rule:evenodd;stroke:none"
         inkscape:box3dsidetype="13"
         d="m 586.90401,454.42748 1245.36039,0 -722.6985,-313.87981 -1015.659659,0 z" />
      <path
         sodipodi:type="inkscape:box3dside"
         id="path4004"
         style="fill:#353564;fill-rule:evenodd;stroke:none"
         inkscape:box3dsidetype="6"
         d="m 586.90401,559.139 0,-104.71152 -492.997769,-313.87981 0,85.39799 z" />
    </g>
  </g>
  <g
     style="display:inline"
     inkscape:groupmode="layer"
     id="g6995"
     inkscape:label="layer4"
     transform="translate(0,10.64217)">
    <g
       id="g8661"
       transform="translate(1096,208)">
      <path
         style="fill:url(#linearGradient8910);fill-opacity:1"
         d="m -1002.1471,-67.341402 c 0,0 1015.7096,-0.07766 1015.7096,-0.07766 0,0 723.1875,314.281252 723.1875,314.281252 0,0 -1245.25,-0.75 -1245.25,-0.75 0,0 -493.6471,-313.453588 -493.6471,-313.453588"
         id="rect6997"
         inkscape:connector-curvature="0" />
    </g>
    <path
       inkscape:connector-curvature="0"
       id="path8656"
       d="M 587.5,454.11219 93.8529,140.6586 1109.5625,140.58093 1832.75,454.86219 z"
       style="fill:none;stroke:#000000;stroke-width:1px;stroke-linecap:butt;stroke-linejoin:miter;stroke-opacity:1" />
  </g>
</svg>
